<?xml version="1.0" standalone="no"?>
 <!DOCTYPE svg PUBLIC "-//W3C//DTD SVG 1.1//EN" 
 "http://www.w3.org/Graphics/SVG/1.1/DTD/svg11.dtd"> 
<svg
  xmlns:svg="http://www.w3.org/2000/svg"
  xmlns="http://www.w3.org/2000/svg"
  xmlns:xlink="http://www.w3.org/1999/xlink"
  version="1.1"
  width="29.700220cm" height="21.000720cm" viewBox="0 0 297002200 210007200">
<title>SVG Picture created as hot_fen_led_board-F_Mask.svg date 2024/04/29 22:42:16 </title>
  <desc>Picture generated by PCBNEW </desc>
<g style="fill:#000000; fill-opacity:1.000000;stroke:#000000; stroke-opacity:1.000000;
stroke-linecap:round; stroke-linejoin:round;"
 transform="translate(0 0) scale(1 1)">
</g>
<g style="fill:#000000; fill-opacity:0.0; 
stroke:#000000; stroke-width:0.000000; stroke-opacity:1; 
stroke-linecap:round; stroke-linejoin:round;">
<g >
</g>
<g style="fill:#000000; fill-opacity:0.0; 
stroke:#000000; stroke-width:1.000000; stroke-opacity:1; 
stroke-linecap:round; stroke-linejoin:round;">
</g>
<g style="fill:#000000; fill-opacity:1.0; 
stroke:#000000; stroke-width:1.000000; stroke-opacity:1; 
stroke-linecap:round; stroke-linejoin:round;">
<path style="fill:#000000; fill-opacity:1.0; 
stroke:#000000; stroke-width:1.000000; stroke-opacity:1; 
stroke-linecap:round; stroke-linejoin:round;fill-rule:evenodd;"
d="M 129139700.000000,88875000.000000
129151118.000000,88932403.000000
129183634.000000,88981066.000000
129232297.000000,89013582.000000
129289700.000000,89025000.000000
130464700.000000,89025000.000000
130522103.000000,89013582.000000
130570766.000000,88981066.000000
130603282.000000,88932403.000000
130614700.000000,88875000.000000
130614700.000000,88575000.000000
130603282.000000,88517597.000000
130570766.000000,88468934.000000
130522103.000000,88436418.000000
130464700.000000,88425000.000000
129289700.000000,88425000.000000
129232297.000000,88436418.000000
129183634.000000,88468934.000000
129151118.000000,88517597.000000
129139700.000000,88575000.000000
Z" /> 
<path style="fill:#000000; fill-opacity:1.0; 
stroke:#000000; stroke-width:1.000000; stroke-opacity:1; 
stroke-linecap:round; stroke-linejoin:round;fill-rule:evenodd;"
d="M 129139700.000000,86975000.000000
129151118.000000,87032403.000000
129183634.000000,87081066.000000
129232297.000000,87113582.000000
129289700.000000,87125000.000000
130464700.000000,87125000.000000
130522103.000000,87113582.000000
130570766.000000,87081066.000000
130603282.000000,87032403.000000
130614700.000000,86975000.000000
130614700.000000,86675000.000000
130603282.000000,86617597.000000
130570766.000000,86568934.000000
130522103.000000,86536418.000000
130464700.000000,86525000.000000
129289700.000000,86525000.000000
129232297.000000,86536418.000000
129183634.000000,86568934.000000
129151118.000000,86617597.000000
129139700.000000,86675000.000000
Z" /> 
<path style="fill:#000000; fill-opacity:1.0; 
stroke:#000000; stroke-width:1.000000; stroke-opacity:1; 
stroke-linecap:round; stroke-linejoin:round;fill-rule:evenodd;"
d="M 131014700.000000,87925000.000000
131026118.000000,87982403.000000
131058634.000000,88031066.000000
131107297.000000,88063582.000000
131164700.000000,88075000.000000
132339700.000000,88075000.000000
132397103.000000,88063582.000000
132445766.000000,88031066.000000
132478282.000000,87982403.000000
132489700.000000,87925000.000000
132489700.000000,87625000.000000
132478282.000000,87567597.000000
132445766.000000,87518934.000000
132397103.000000,87486418.000000
132339700.000000,87475000.000000
131164700.000000,87475000.000000
131107297.000000,87486418.000000
131058634.000000,87518934.000000
131026118.000000,87567597.000000
131014700.000000,87625000.000000
Z" /> 
</g>
<g >
</g>
<g style="fill:#000000; fill-opacity:1.0; 
stroke:#000000; stroke-width:1.000000; stroke-opacity:1; 
stroke-linecap:round; stroke-linejoin:round;">
<path style="fill:#000000; fill-opacity:1.0; 
stroke:#000000; stroke-width:1.000000; stroke-opacity:1; 
stroke-linecap:round; stroke-linejoin:round;fill-rule:evenodd;"
d="M 136489700.000000,88350000.000000
136508730.000000,88445671.000000
136562923.000000,88526777.000000
136644029.000000,88580970.000000
136739700.000000,88600000.000000
137264700.000000,88600000.000000
137360371.000000,88580970.000000
137441477.000000,88526777.000000
137495670.000000,88445671.000000
137514700.000000,88350000.000000
137514700.000000,87450000.000000
137495670.000000,87354329.000000
137441477.000000,87273223.000000
137360371.000000,87219030.000000
137264700.000000,87200000.000000
136739700.000000,87200000.000000
136644029.000000,87219030.000000
136562923.000000,87273223.000000
136508730.000000,87354329.000000
136489700.000000,87450000.000000
Z" /> 
<path style="fill:#000000; fill-opacity:1.0; 
stroke:#000000; stroke-width:1.000000; stroke-opacity:1; 
stroke-linecap:round; stroke-linejoin:round;fill-rule:evenodd;"
d="M 138314700.000000,88350000.000000
138333730.000000,88445671.000000
138387923.000000,88526777.000000
138469029.000000,88580970.000000
138564700.000000,88600000.000000
139089700.000000,88600000.000000
139185371.000000,88580970.000000
139266477.000000,88526777.000000
139320670.000000,88445671.000000
139339700.000000,88350000.000000
139339700.000000,87450000.000000
139320670.000000,87354329.000000
139266477.000000,87273223.000000
139185371.000000,87219030.000000
139089700.000000,87200000.000000
138564700.000000,87200000.000000
138469029.000000,87219030.000000
138387923.000000,87273223.000000
138333730.000000,87354329.000000
138314700.000000,87450000.000000
Z" /> 
</g>
<g >
</g>
<g style="fill:#000000; fill-opacity:1.0; 
stroke:#000000; stroke-width:1.000000; stroke-opacity:1; 
stroke-linecap:round; stroke-linejoin:round;">
<path style="fill:#000000; fill-opacity:1.0; 
stroke:#000000; stroke-width:1.000000; stroke-opacity:1; 
stroke-linecap:round; stroke-linejoin:round;fill-rule:evenodd;"
d="M 128439700.000000,82950000.000000
128428282.000000,82892597.000000
128395766.000000,82843934.000000
128347103.000000,82811418.000000
128289700.000000,82800000.000000
127114700.000000,82800000.000000
127057297.000000,82811418.000000
127008634.000000,82843934.000000
126976118.000000,82892597.000000
126964700.000000,82950000.000000
126964700.000000,83250000.000000
126976118.000000,83307403.000000
127008634.000000,83356066.000000
127057297.000000,83388582.000000
127114700.000000,83400000.000000
128289700.000000,83400000.000000
128347103.000000,83388582.000000
128395766.000000,83356066.000000
128428282.000000,83307403.000000
128439700.000000,83250000.000000
Z" /> 
<path style="fill:#000000; fill-opacity:1.0; 
stroke:#000000; stroke-width:1.000000; stroke-opacity:1; 
stroke-linecap:round; stroke-linejoin:round;fill-rule:evenodd;"
d="M 128439700.000000,84850000.000000
128428282.000000,84792597.000000
128395766.000000,84743934.000000
128347103.000000,84711418.000000
128289700.000000,84700000.000000
127114700.000000,84700000.000000
127057297.000000,84711418.000000
127008634.000000,84743934.000000
126976118.000000,84792597.000000
126964700.000000,84850000.000000
126964700.000000,85150000.000000
126976118.000000,85207403.000000
127008634.000000,85256066.000000
127057297.000000,85288582.000000
127114700.000000,85300000.000000
128289700.000000,85300000.000000
128347103.000000,85288582.000000
128395766.000000,85256066.000000
128428282.000000,85207403.000000
128439700.000000,85150000.000000
Z" /> 
<path style="fill:#000000; fill-opacity:1.0; 
stroke:#000000; stroke-width:1.000000; stroke-opacity:1; 
stroke-linecap:round; stroke-linejoin:round;fill-rule:evenodd;"
d="M 126564700.000000,83900000.000000
126553282.000000,83842597.000000
126520766.000000,83793934.000000
126472103.000000,83761418.000000
126414700.000000,83750000.000000
125239700.000000,83750000.000000
125182297.000000,83761418.000000
125133634.000000,83793934.000000
125101118.000000,83842597.000000
125089700.000000,83900000.000000
125089700.000000,84200000.000000
125101118.000000,84257403.000000
125133634.000000,84306066.000000
125182297.000000,84338582.000000
125239700.000000,84350000.000000
126414700.000000,84350000.000000
126472103.000000,84338582.000000
126520766.000000,84306066.000000
126553282.000000,84257403.000000
126564700.000000,84200000.000000
Z" /> 
</g>
<g >
</g>
<g style="fill:#000000; fill-opacity:1.0; 
stroke:#000000; stroke-width:1.000000; stroke-opacity:1; 
stroke-linecap:round; stroke-linejoin:round;">
<path style="fill:#000000; fill-opacity:1.0; 
stroke:#000000; stroke-width:1.000000; stroke-opacity:1; 
stroke-linecap:round; stroke-linejoin:round;fill-rule:evenodd;"
d="M 138902200.000000,86462500.000000
138959603.000000,86451082.000000
139008266.000000,86418566.000000
139040782.000000,86369903.000000
139052200.000000,86312500.000000
139052200.000000,85137500.000000
139040782.000000,85080097.000000
139008266.000000,85031434.000000
138959603.000000,84998918.000000
138902200.000000,84987500.000000
138602200.000000,84987500.000000
138544797.000000,84998918.000000
138496134.000000,85031434.000000
138463618.000000,85080097.000000
138452200.000000,85137500.000000
138452200.000000,86312500.000000
138463618.000000,86369903.000000
138496134.000000,86418566.000000
138544797.000000,86451082.000000
138602200.000000,86462500.000000
Z" /> 
<path style="fill:#000000; fill-opacity:1.0; 
stroke:#000000; stroke-width:1.000000; stroke-opacity:1; 
stroke-linecap:round; stroke-linejoin:round;fill-rule:evenodd;"
d="M 137002200.000000,86462500.000000
137059603.000000,86451082.000000
137108266.000000,86418566.000000
137140782.000000,86369903.000000
137152200.000000,86312500.000000
137152200.000000,85137500.000000
137140782.000000,85080097.000000
137108266.000000,85031434.000000
137059603.000000,84998918.000000
137002200.000000,84987500.000000
136702200.000000,84987500.000000
136644797.000000,84998918.000000
136596134.000000,85031434.000000
136563618.000000,85080097.000000
136552200.000000,85137500.000000
136552200.000000,86312500.000000
136563618.000000,86369903.000000
136596134.000000,86418566.000000
136644797.000000,86451082.000000
136702200.000000,86462500.000000
Z" /> 
<path style="fill:#000000; fill-opacity:1.0; 
stroke:#000000; stroke-width:1.000000; stroke-opacity:1; 
stroke-linecap:round; stroke-linejoin:round;fill-rule:evenodd;"
d="M 137952200.000000,84587500.000000
138009603.000000,84576082.000000
138058266.000000,84543566.000000
138090782.000000,84494903.000000
138102200.000000,84437500.000000
138102200.000000,83262500.000000
138090782.000000,83205097.000000
138058266.000000,83156434.000000
138009603.000000,83123918.000000
137952200.000000,83112500.000000
137652200.000000,83112500.000000
137594797.000000,83123918.000000
137546134.000000,83156434.000000
137513618.000000,83205097.000000
137502200.000000,83262500.000000
137502200.000000,84437500.000000
137513618.000000,84494903.000000
137546134.000000,84543566.000000
137594797.000000,84576082.000000
137652200.000000,84587500.000000
Z" /> 
</g>
<g >
</g>
<g style="fill:#000000; fill-opacity:1.0; 
stroke:#000000; stroke-width:1.000000; stroke-opacity:1; 
stroke-linecap:round; stroke-linejoin:round;">
<path style="fill:#000000; fill-opacity:1.0; 
stroke:#000000; stroke-width:1.000000; stroke-opacity:1; 
stroke-linecap:round; stroke-linejoin:round;fill-rule:evenodd;"
d="M 163203699.000000,105180999.000000
163203699.000000,100300001.000000
161560701.000000,100300001.000000
161560701.000000,105180999.000000
Z" /> 
<path style="fill:#000000; fill-opacity:1.0; 
stroke:#000000; stroke-width:1.000000; stroke-opacity:1; 
stroke-linecap:round; stroke-linejoin:round;fill-rule:evenodd;"
d="M 160663700.000000,101829750.000000
160643596.000000,101702821.000000
160585254.000000,101588317.000000
160494383.000000,101497446.000000
160379879.000000,101439104.000000
160252950.000000,101419000.000000
159431450.000000,101419000.000000
159304521.000000,101439104.000000
159190017.000000,101497446.000000
159099146.000000,101588317.000000
159040804.000000,101702821.000000
159020700.000000,101829750.000000
159020700.000000,104770250.000000
159040804.000000,104897179.000000
159099146.000000,105011683.000000
159190017.000000,105102554.000000
159304521.000000,105160896.000000
159431450.000000,105181000.000000
160252950.000000,105181000.000000
160379879.000000,105160896.000000
160494383.000000,105102554.000000
160585254.000000,105011683.000000
160643596.000000,104897179.000000
160663700.000000,104770250.000000
Z" /> 
<path style="fill:#000000; fill-opacity:1.0; 
stroke:#000000; stroke-width:1.000000; stroke-opacity:1; 
stroke-linecap:round; stroke-linejoin:round;fill-rule:evenodd;"
d="M 158123700.000000,101829750.000000
158103596.000000,101702821.000000
158045254.000000,101588317.000000
157954383.000000,101497446.000000
157839879.000000,101439104.000000
157712950.000000,101419000.000000
156891450.000000,101419000.000000
156764521.000000,101439104.000000
156650017.000000,101497446.000000
156559146.000000,101588317.000000
156500804.000000,101702821.000000
156480700.000000,101829750.000000
156480700.000000,104770250.000000
156500804.000000,104897179.000000
156559146.000000,105011683.000000
156650017.000000,105102554.000000
156764521.000000,105160896.000000
156891450.000000,105181000.000000
157712950.000000,105181000.000000
157839879.000000,105160896.000000
157954383.000000,105102554.000000
158045254.000000,105011683.000000
158103596.000000,104897179.000000
158123700.000000,104770250.000000
Z" /> 
<path style="fill:#000000; fill-opacity:1.0; 
stroke:#000000; stroke-width:1.000000; stroke-opacity:1; 
stroke-linecap:round; stroke-linejoin:round;fill-rule:evenodd;"
d="M 155583700.000000,101829750.000000
155563596.000000,101702821.000000
155505254.000000,101588317.000000
155414383.000000,101497446.000000
155299879.000000,101439104.000000
155172950.000000,101419000.000000
154351450.000000,101419000.000000
154224521.000000,101439104.000000
154110017.000000,101497446.000000
154019146.000000,101588317.000000
153960804.000000,101702821.000000
153940700.000000,101829750.000000
153940700.000000,104770250.000000
153960804.000000,104897179.000000
154019146.000000,105011683.000000
154110017.000000,105102554.000000
154224521.000000,105160896.000000
154351450.000000,105181000.000000
155172950.000000,105181000.000000
155299879.000000,105160896.000000
155414383.000000,105102554.000000
155505254.000000,105011683.000000
155563596.000000,104897179.000000
155583700.000000,104770250.000000
Z" /> 
<path style="fill:#000000; fill-opacity:1.0; 
stroke:#000000; stroke-width:1.000000; stroke-opacity:1; 
stroke-linecap:round; stroke-linejoin:round;fill-rule:evenodd;"
d="M 153043700.000000,101829750.000000
153023596.000000,101702821.000000
152965254.000000,101588317.000000
152874383.000000,101497446.000000
152759879.000000,101439104.000000
152632950.000000,101419000.000000
151811450.000000,101419000.000000
151684521.000000,101439104.000000
151570017.000000,101497446.000000
151479146.000000,101588317.000000
151420804.000000,101702821.000000
151400700.000000,101829750.000000
151400700.000000,104770250.000000
151420804.000000,104897179.000000
151479146.000000,105011683.000000
151570017.000000,105102554.000000
151684521.000000,105160896.000000
151811450.000000,105181000.000000
152632950.000000,105181000.000000
152759879.000000,105160896.000000
152874383.000000,105102554.000000
152965254.000000,105011683.000000
153023596.000000,104897179.000000
153043700.000000,104770250.000000
Z" /> 
<path style="fill:#000000; fill-opacity:1.0; 
stroke:#000000; stroke-width:1.000000; stroke-opacity:1; 
stroke-linecap:round; stroke-linejoin:round;fill-rule:evenodd;"
d="M 150503700.000000,101829750.000000
150483596.000000,101702821.000000
150425254.000000,101588317.000000
150334383.000000,101497446.000000
150219879.000000,101439104.000000
150092950.000000,101419000.000000
149271450.000000,101419000.000000
149144521.000000,101439104.000000
149030017.000000,101497446.000000
148939146.000000,101588317.000000
148880804.000000,101702821.000000
148860700.000000,101829750.000000
148860700.000000,104770250.000000
148880804.000000,104897179.000000
148939146.000000,105011683.000000
149030017.000000,105102554.000000
149144521.000000,105160896.000000
149271450.000000,105181000.000000
150092950.000000,105181000.000000
150219879.000000,105160896.000000
150334383.000000,105102554.000000
150425254.000000,105011683.000000
150483596.000000,104897179.000000
150503700.000000,104770250.000000
Z" /> 
<path style="fill:#000000; fill-opacity:1.0; 
stroke:#000000; stroke-width:1.000000; stroke-opacity:1; 
stroke-linecap:round; stroke-linejoin:round;fill-rule:evenodd;"
d="M 147963700.000000,101829750.000000
147943596.000000,101702821.000000
147885254.000000,101588317.000000
147794383.000000,101497446.000000
147679879.000000,101439104.000000
147552950.000000,101419000.000000
146731450.000000,101419000.000000
146604521.000000,101439104.000000
146490017.000000,101497446.000000
146399146.000000,101588317.000000
146340804.000000,101702821.000000
146320700.000000,101829750.000000
146320700.000000,104770250.000000
146340804.000000,104897179.000000
146399146.000000,105011683.000000
146490017.000000,105102554.000000
146604521.000000,105160896.000000
146731450.000000,105181000.000000
147552950.000000,105181000.000000
147679879.000000,105160896.000000
147794383.000000,105102554.000000
147885254.000000,105011683.000000
147943596.000000,104897179.000000
147963700.000000,104770250.000000
Z" /> 
<path style="fill:#000000; fill-opacity:1.0; 
stroke:#000000; stroke-width:1.000000; stroke-opacity:1; 
stroke-linecap:round; stroke-linejoin:round;fill-rule:evenodd;"
d="M 145423700.000000,101829750.000000
145403596.000000,101702821.000000
145345254.000000,101588317.000000
145254383.000000,101497446.000000
145139879.000000,101439104.000000
145012950.000000,101419000.000000
144191450.000000,101419000.000000
144064521.000000,101439104.000000
143950017.000000,101497446.000000
143859146.000000,101588317.000000
143800804.000000,101702821.000000
143780700.000000,101829750.000000
143780700.000000,104770250.000000
143800804.000000,104897179.000000
143859146.000000,105011683.000000
143950017.000000,105102554.000000
144064521.000000,105160896.000000
144191450.000000,105181000.000000
145012950.000000,105181000.000000
145139879.000000,105160896.000000
145254383.000000,105102554.000000
145345254.000000,105011683.000000
145403596.000000,104897179.000000
145423700.000000,104770250.000000
Z" /> 
<path style="fill:#000000; fill-opacity:1.0; 
stroke:#000000; stroke-width:1.000000; stroke-opacity:1; 
stroke-linecap:round; stroke-linejoin:round;fill-rule:evenodd;"
d="M 142883700.000000,101829750.000000
142863596.000000,101702821.000000
142805254.000000,101588317.000000
142714383.000000,101497446.000000
142599879.000000,101439104.000000
142472950.000000,101419000.000000
141651450.000000,101419000.000000
141524521.000000,101439104.000000
141410017.000000,101497446.000000
141319146.000000,101588317.000000
141260804.000000,101702821.000000
141240700.000000,101829750.000000
141240700.000000,104770250.000000
141260804.000000,104897179.000000
141319146.000000,105011683.000000
141410017.000000,105102554.000000
141524521.000000,105160896.000000
141651450.000000,105181000.000000
142472950.000000,105181000.000000
142599879.000000,105160896.000000
142714383.000000,105102554.000000
142805254.000000,105011683.000000
142863596.000000,104897179.000000
142883700.000000,104770250.000000
Z" /> 
</g>
<g >
</g>
<g style="fill:#000000; fill-opacity:1.0; 
stroke:#000000; stroke-width:1.000000; stroke-opacity:1; 
stroke-linecap:round; stroke-linejoin:round;">
<path style="fill:#000000; fill-opacity:1.0; 
stroke:#000000; stroke-width:1.000000; stroke-opacity:1; 
stroke-linecap:round; stroke-linejoin:round;fill-rule:evenodd;"
d="M 135452200.000000,85412500.000000
135547871.000000,85393470.000000
135628977.000000,85339277.000000
135683170.000000,85258171.000000
135702200.000000,85162500.000000
135702200.000000,84637500.000000
135683170.000000,84541829.000000
135628977.000000,84460723.000000
135547871.000000,84406530.000000
135452200.000000,84387500.000000
134552200.000000,84387500.000000
134456529.000000,84406530.000000
134375423.000000,84460723.000000
134321230.000000,84541829.000000
134302200.000000,84637500.000000
134302200.000000,85162500.000000
134321230.000000,85258171.000000
134375423.000000,85339277.000000
134456529.000000,85393470.000000
134552200.000000,85412500.000000
Z" /> 
<path style="fill:#000000; fill-opacity:1.0; 
stroke:#000000; stroke-width:1.000000; stroke-opacity:1; 
stroke-linecap:round; stroke-linejoin:round;fill-rule:evenodd;"
d="M 135452200.000000,83587500.000000
135547871.000000,83568470.000000
135628977.000000,83514277.000000
135683170.000000,83433171.000000
135702200.000000,83337500.000000
135702200.000000,82812500.000000
135683170.000000,82716829.000000
135628977.000000,82635723.000000
135547871.000000,82581530.000000
135452200.000000,82562500.000000
134552200.000000,82562500.000000
134456529.000000,82581530.000000
134375423.000000,82635723.000000
134321230.000000,82716829.000000
134302200.000000,82812500.000000
134302200.000000,83337500.000000
134321230.000000,83433171.000000
134375423.000000,83514277.000000
134456529.000000,83568470.000000
134552200.000000,83587500.000000
Z" /> 
</g>
<g >
</g>
<g style="fill:#000000; fill-opacity:1.0; 
stroke:#000000; stroke-width:1.000000; stroke-opacity:1; 
stroke-linecap:round; stroke-linejoin:round;">
<circle cx="151102200.000000" cy="92800000.000000" r="500000.000000" /> 
</g>
<g style="fill:#000000; fill-opacity:1.0; 
stroke:#000000; stroke-width:21200.000000; stroke-opacity:1; 
stroke-linecap:round; stroke-linejoin:round;">
</g>
<g >
</g>
<g style="fill:#000000; fill-opacity:1.0; 
stroke:#000000; stroke-width:21200.000000; stroke-opacity:1; 
stroke-linecap:round; stroke-linejoin:round;">
</g>
<g style="fill:#000000; fill-opacity:1.0; 
stroke:#000000; stroke-width:1.000000; stroke-opacity:1; 
stroke-linecap:round; stroke-linejoin:round;">
<path style="fill:#000000; fill-opacity:1.0; 
stroke:#000000; stroke-width:1.000000; stroke-opacity:1; 
stroke-linecap:round; stroke-linejoin:round;fill-rule:evenodd;"
d="M 149189700.000000,83450000.000000
149208730.000000,83545671.000000
149262923.000000,83626777.000000
149344029.000000,83680970.000000
149439700.000000,83700000.000000
149964700.000000,83700000.000000
150060371.000000,83680970.000000
150141477.000000,83626777.000000
150195670.000000,83545671.000000
150214700.000000,83450000.000000
150214700.000000,82550000.000000
150195670.000000,82454329.000000
150141477.000000,82373223.000000
150060371.000000,82319030.000000
149964700.000000,82300000.000000
149439700.000000,82300000.000000
149344029.000000,82319030.000000
149262923.000000,82373223.000000
149208730.000000,82454329.000000
149189700.000000,82550000.000000
Z" /> 
<path style="fill:#000000; fill-opacity:1.0; 
stroke:#000000; stroke-width:1.000000; stroke-opacity:1; 
stroke-linecap:round; stroke-linejoin:round;fill-rule:evenodd;"
d="M 151014700.000000,83450000.000000
151033730.000000,83545671.000000
151087923.000000,83626777.000000
151169029.000000,83680970.000000
151264700.000000,83700000.000000
151789700.000000,83700000.000000
151885371.000000,83680970.000000
151966477.000000,83626777.000000
152020670.000000,83545671.000000
152039700.000000,83450000.000000
152039700.000000,82550000.000000
152020670.000000,82454329.000000
151966477.000000,82373223.000000
151885371.000000,82319030.000000
151789700.000000,82300000.000000
151264700.000000,82300000.000000
151169029.000000,82319030.000000
151087923.000000,82373223.000000
151033730.000000,82454329.000000
151014700.000000,82550000.000000
Z" /> 
</g>
<g >
</g>
<g style="fill:#000000; fill-opacity:1.0; 
stroke:#000000; stroke-width:1.000000; stroke-opacity:1; 
stroke-linecap:round; stroke-linejoin:round;">
<circle cx="162002200.000000" cy="88400000.000000" r="500000.000000" /> 
</g>
<g style="fill:#000000; fill-opacity:1.0; 
stroke:#000000; stroke-width:21200.000000; stroke-opacity:1; 
stroke-linecap:round; stroke-linejoin:round;">
</g>
<g >
</g>
<g style="fill:#000000; fill-opacity:1.0; 
stroke:#000000; stroke-width:21200.000000; stroke-opacity:1; 
stroke-linecap:round; stroke-linejoin:round;">
</g>
<g style="fill:#000000; fill-opacity:1.0; 
stroke:#000000; stroke-width:1.000000; stroke-opacity:1; 
stroke-linecap:round; stroke-linejoin:round;">
<path style="fill:#000000; fill-opacity:1.0; 
stroke:#000000; stroke-width:1.000000; stroke-opacity:1; 
stroke-linecap:round; stroke-linejoin:round;fill-rule:evenodd;"
d="M 128252200.000000,89237500.000000
128347871.000000,89218470.000000
128428977.000000,89164277.000000
128483170.000000,89083171.000000
128502200.000000,88987500.000000
128502200.000000,88462500.000000
128483170.000000,88366829.000000
128428977.000000,88285723.000000
128347871.000000,88231530.000000
128252200.000000,88212500.000000
127352200.000000,88212500.000000
127256529.000000,88231530.000000
127175423.000000,88285723.000000
127121230.000000,88366829.000000
127102200.000000,88462500.000000
127102200.000000,88987500.000000
127121230.000000,89083171.000000
127175423.000000,89164277.000000
127256529.000000,89218470.000000
127352200.000000,89237500.000000
Z" /> 
<path style="fill:#000000; fill-opacity:1.0; 
stroke:#000000; stroke-width:1.000000; stroke-opacity:1; 
stroke-linecap:round; stroke-linejoin:round;fill-rule:evenodd;"
d="M 128252200.000000,87412500.000000
128347871.000000,87393470.000000
128428977.000000,87339277.000000
128483170.000000,87258171.000000
128502200.000000,87162500.000000
128502200.000000,86637500.000000
128483170.000000,86541829.000000
128428977.000000,86460723.000000
128347871.000000,86406530.000000
128252200.000000,86387500.000000
127352200.000000,86387500.000000
127256529.000000,86406530.000000
127175423.000000,86460723.000000
127121230.000000,86541829.000000
127102200.000000,86637500.000000
127102200.000000,87162500.000000
127121230.000000,87258171.000000
127175423.000000,87339277.000000
127256529.000000,87393470.000000
127352200.000000,87412500.000000
Z" /> 
</g>
<g >
</g>
<g style="fill:#000000; fill-opacity:1.0; 
stroke:#000000; stroke-width:1.000000; stroke-opacity:1; 
stroke-linecap:round; stroke-linejoin:round;">
<path style="fill:#000000; fill-opacity:1.0; 
stroke:#000000; stroke-width:1.000000; stroke-opacity:1; 
stroke-linecap:round; stroke-linejoin:round;fill-rule:evenodd;"
d="M 158902200.000000,92375000.000000
158921230.000000,92470671.000000
158975423.000000,92551777.000000
159056529.000000,92605970.000000
159152200.000000,92625000.000000
159652200.000000,92625000.000000
159747871.000000,92605970.000000
159828977.000000,92551777.000000
159883170.000000,92470671.000000
159902200.000000,92375000.000000
159902200.000000,91425000.000000
159883170.000000,91329329.000000
159828977.000000,91248223.000000
159747871.000000,91194030.000000
159652200.000000,91175000.000000
159152200.000000,91175000.000000
159056529.000000,91194030.000000
158975423.000000,91248223.000000
158921230.000000,91329329.000000
158902200.000000,91425000.000000
Z" /> 
<path style="fill:#000000; fill-opacity:1.0; 
stroke:#000000; stroke-width:1.000000; stroke-opacity:1; 
stroke-linecap:round; stroke-linejoin:round;fill-rule:evenodd;"
d="M 160802200.000000,92375000.000000
160821230.000000,92470671.000000
160875423.000000,92551777.000000
160956529.000000,92605970.000000
161052200.000000,92625000.000000
161552200.000000,92625000.000000
161647871.000000,92605970.000000
161728977.000000,92551777.000000
161783170.000000,92470671.000000
161802200.000000,92375000.000000
161802200.000000,91425000.000000
161783170.000000,91329329.000000
161728977.000000,91248223.000000
161647871.000000,91194030.000000
161552200.000000,91175000.000000
161052200.000000,91175000.000000
160956529.000000,91194030.000000
160875423.000000,91248223.000000
160821230.000000,91329329.000000
160802200.000000,91425000.000000
Z" /> 
</g>
<g >
</g>
<g style="fill:#000000; fill-opacity:1.0; 
stroke:#000000; stroke-width:1.000000; stroke-opacity:1; 
stroke-linecap:round; stroke-linejoin:round;">
<path style="fill:#000000; fill-opacity:1.0; 
stroke:#000000; stroke-width:1.000000; stroke-opacity:1; 
stroke-linecap:round; stroke-linejoin:round;fill-rule:evenodd;"
d="M 127914700.000000,96475000.000000
128010371.000000,96455970.000000
128091477.000000,96401777.000000
128145670.000000,96320671.000000
128164700.000000,96225000.000000
128164700.000000,95700000.000000
128145670.000000,95604329.000000
128091477.000000,95523223.000000
128010371.000000,95469030.000000
127914700.000000,95450000.000000
127014700.000000,95450000.000000
126919029.000000,95469030.000000
126837923.000000,95523223.000000
126783730.000000,95604329.000000
126764700.000000,95700000.000000
126764700.000000,96225000.000000
126783730.000000,96320671.000000
126837923.000000,96401777.000000
126919029.000000,96455970.000000
127014700.000000,96475000.000000
Z" /> 
<path style="fill:#000000; fill-opacity:1.0; 
stroke:#000000; stroke-width:1.000000; stroke-opacity:1; 
stroke-linecap:round; stroke-linejoin:round;fill-rule:evenodd;"
d="M 127914700.000000,94650000.000000
128010371.000000,94630970.000000
128091477.000000,94576777.000000
128145670.000000,94495671.000000
128164700.000000,94400000.000000
128164700.000000,93875000.000000
128145670.000000,93779329.000000
128091477.000000,93698223.000000
128010371.000000,93644030.000000
127914700.000000,93625000.000000
127014700.000000,93625000.000000
126919029.000000,93644030.000000
126837923.000000,93698223.000000
126783730.000000,93779329.000000
126764700.000000,93875000.000000
126764700.000000,94400000.000000
126783730.000000,94495671.000000
126837923.000000,94576777.000000
126919029.000000,94630970.000000
127014700.000000,94650000.000000
Z" /> 
</g>
<g >
</g>
<g style="fill:#000000; fill-opacity:1.0; 
stroke:#000000; stroke-width:1.000000; stroke-opacity:1; 
stroke-linecap:round; stroke-linejoin:round;">
<path style="fill:#000000; fill-opacity:1.0; 
stroke:#000000; stroke-width:1.000000; stroke-opacity:1; 
stroke-linecap:round; stroke-linejoin:round;fill-rule:evenodd;"
d="M 143652200.000000,82762500.000000
143556529.000000,82781530.000000
143475423.000000,82835723.000000
143421230.000000,82916829.000000
143402200.000000,83012500.000000
143402200.000000,83537500.000000
143421230.000000,83633171.000000
143475423.000000,83714277.000000
143556529.000000,83768470.000000
143652200.000000,83787500.000000
144552200.000000,83787500.000000
144647871.000000,83768470.000000
144728977.000000,83714277.000000
144783170.000000,83633171.000000
144802200.000000,83537500.000000
144802200.000000,83012500.000000
144783170.000000,82916829.000000
144728977.000000,82835723.000000
144647871.000000,82781530.000000
144552200.000000,82762500.000000
Z" /> 
<path style="fill:#000000; fill-opacity:1.0; 
stroke:#000000; stroke-width:1.000000; stroke-opacity:1; 
stroke-linecap:round; stroke-linejoin:round;fill-rule:evenodd;"
d="M 143652200.000000,84587500.000000
143556529.000000,84606530.000000
143475423.000000,84660723.000000
143421230.000000,84741829.000000
143402200.000000,84837500.000000
143402200.000000,85362500.000000
143421230.000000,85458171.000000
143475423.000000,85539277.000000
143556529.000000,85593470.000000
143652200.000000,85612500.000000
144552200.000000,85612500.000000
144647871.000000,85593470.000000
144728977.000000,85539277.000000
144783170.000000,85458171.000000
144802200.000000,85362500.000000
144802200.000000,84837500.000000
144783170.000000,84741829.000000
144728977.000000,84660723.000000
144647871.000000,84606530.000000
144552200.000000,84587500.000000
Z" /> 
</g>
<g >
</g>
<g style="fill:#000000; fill-opacity:1.0; 
stroke:#000000; stroke-width:1.000000; stroke-opacity:1; 
stroke-linecap:round; stroke-linejoin:round;">
<path style="fill:#000000; fill-opacity:1.0; 
stroke:#000000; stroke-width:1.000000; stroke-opacity:1; 
stroke-linecap:round; stroke-linejoin:round;fill-rule:evenodd;"
d="M 136452200.000000,96512500.000000
136547871.000000,96493470.000000
136628977.000000,96439277.000000
136683170.000000,96358171.000000
136702200.000000,96262500.000000
136702200.000000,95737500.000000
136683170.000000,95641829.000000
136628977.000000,95560723.000000
136547871.000000,95506530.000000
136452200.000000,95487500.000000
135552200.000000,95487500.000000
135456529.000000,95506530.000000
135375423.000000,95560723.000000
135321230.000000,95641829.000000
135302200.000000,95737500.000000
135302200.000000,96262500.000000
135321230.000000,96358171.000000
135375423.000000,96439277.000000
135456529.000000,96493470.000000
135552200.000000,96512500.000000
Z" /> 
<path style="fill:#000000; fill-opacity:1.0; 
stroke:#000000; stroke-width:1.000000; stroke-opacity:1; 
stroke-linecap:round; stroke-linejoin:round;fill-rule:evenodd;"
d="M 136452200.000000,94687500.000000
136547871.000000,94668470.000000
136628977.000000,94614277.000000
136683170.000000,94533171.000000
136702200.000000,94437500.000000
136702200.000000,93912500.000000
136683170.000000,93816829.000000
136628977.000000,93735723.000000
136547871.000000,93681530.000000
136452200.000000,93662500.000000
135552200.000000,93662500.000000
135456529.000000,93681530.000000
135375423.000000,93735723.000000
135321230.000000,93816829.000000
135302200.000000,93912500.000000
135302200.000000,94437500.000000
135321230.000000,94533171.000000
135375423.000000,94614277.000000
135456529.000000,94668470.000000
135552200.000000,94687500.000000
Z" /> 
</g>
<g >
</g>
<g style="fill:#000000; fill-opacity:1.0; 
stroke:#000000; stroke-width:1.000000; stroke-opacity:1; 
stroke-linecap:round; stroke-linejoin:round;">
<path style="fill:#000000; fill-opacity:1.0; 
stroke:#000000; stroke-width:1.000000; stroke-opacity:1; 
stroke-linecap:round; stroke-linejoin:round;fill-rule:evenodd;"
d="M 126327200.000000,89237500.000000
126422871.000000,89218470.000000
126503977.000000,89164277.000000
126558170.000000,89083171.000000
126577200.000000,88987500.000000
126577200.000000,88462500.000000
126558170.000000,88366829.000000
126503977.000000,88285723.000000
126422871.000000,88231530.000000
126327200.000000,88212500.000000
125427200.000000,88212500.000000
125331529.000000,88231530.000000
125250423.000000,88285723.000000
125196230.000000,88366829.000000
125177200.000000,88462500.000000
125177200.000000,88987500.000000
125196230.000000,89083171.000000
125250423.000000,89164277.000000
125331529.000000,89218470.000000
125427200.000000,89237500.000000
Z" /> 
<path style="fill:#000000; fill-opacity:1.0; 
stroke:#000000; stroke-width:1.000000; stroke-opacity:1; 
stroke-linecap:round; stroke-linejoin:round;fill-rule:evenodd;"
d="M 126327200.000000,87412500.000000
126422871.000000,87393470.000000
126503977.000000,87339277.000000
126558170.000000,87258171.000000
126577200.000000,87162500.000000
126577200.000000,86637500.000000
126558170.000000,86541829.000000
126503977.000000,86460723.000000
126422871.000000,86406530.000000
126327200.000000,86387500.000000
125427200.000000,86387500.000000
125331529.000000,86406530.000000
125250423.000000,86460723.000000
125196230.000000,86541829.000000
125177200.000000,86637500.000000
125177200.000000,87162500.000000
125196230.000000,87258171.000000
125250423.000000,87339277.000000
125331529.000000,87393470.000000
125427200.000000,87412500.000000
Z" /> 
</g>
<g >
</g>
<g style="fill:#000000; fill-opacity:1.0; 
stroke:#000000; stroke-width:1.000000; stroke-opacity:1; 
stroke-linecap:round; stroke-linejoin:round;">
<circle cx="162002200.000000" cy="85900000.000000" r="500000.000000" /> 
</g>
<g style="fill:#000000; fill-opacity:1.0; 
stroke:#000000; stroke-width:21200.000000; stroke-opacity:1; 
stroke-linecap:round; stroke-linejoin:round;">
</g>
<g >
</g>
<g style="fill:#000000; fill-opacity:1.0; 
stroke:#000000; stroke-width:21200.000000; stroke-opacity:1; 
stroke-linecap:round; stroke-linejoin:round;">
</g>
<g style="fill:#000000; fill-opacity:1.0; 
stroke:#000000; stroke-width:1.000000; stroke-opacity:1; 
stroke-linecap:round; stroke-linejoin:round;">
<path style="fill:#000000; fill-opacity:1.0; 
stroke:#000000; stroke-width:1.000000; stroke-opacity:1; 
stroke-linecap:round; stroke-linejoin:round;fill-rule:evenodd;"
d="M 148364700.000000,96250000.000000
148383730.000000,96345671.000000
148437923.000000,96426777.000000
148519029.000000,96480970.000000
148614700.000000,96500000.000000
149139700.000000,96500000.000000
149235371.000000,96480970.000000
149316477.000000,96426777.000000
149370670.000000,96345671.000000
149389700.000000,96250000.000000
149389700.000000,95350000.000000
149370670.000000,95254329.000000
149316477.000000,95173223.000000
149235371.000000,95119030.000000
149139700.000000,95100000.000000
148614700.000000,95100000.000000
148519029.000000,95119030.000000
148437923.000000,95173223.000000
148383730.000000,95254329.000000
148364700.000000,95350000.000000
Z" /> 
<path style="fill:#000000; fill-opacity:1.0; 
stroke:#000000; stroke-width:1.000000; stroke-opacity:1; 
stroke-linecap:round; stroke-linejoin:round;fill-rule:evenodd;"
d="M 150189700.000000,96250000.000000
150208730.000000,96345671.000000
150262923.000000,96426777.000000
150344029.000000,96480970.000000
150439700.000000,96500000.000000
150964700.000000,96500000.000000
151060371.000000,96480970.000000
151141477.000000,96426777.000000
151195670.000000,96345671.000000
151214700.000000,96250000.000000
151214700.000000,95350000.000000
151195670.000000,95254329.000000
151141477.000000,95173223.000000
151060371.000000,95119030.000000
150964700.000000,95100000.000000
150439700.000000,95100000.000000
150344029.000000,95119030.000000
150262923.000000,95173223.000000
150208730.000000,95254329.000000
150189700.000000,95350000.000000
Z" /> 
</g>
<g >
</g>
<g style="fill:#000000; fill-opacity:1.0; 
stroke:#000000; stroke-width:1.000000; stroke-opacity:1; 
stroke-linecap:round; stroke-linejoin:round;">
<path style="fill:#000000; fill-opacity:1.0; 
stroke:#000000; stroke-width:1.000000; stroke-opacity:1; 
stroke-linecap:round; stroke-linejoin:round;fill-rule:evenodd;"
d="M 141452200.000000,89537500.000000
141547871.000000,89518470.000000
141628977.000000,89464277.000000
141683170.000000,89383171.000000
141702200.000000,89287500.000000
141702200.000000,88762500.000000
141683170.000000,88666829.000000
141628977.000000,88585723.000000
141547871.000000,88531530.000000
141452200.000000,88512500.000000
140552200.000000,88512500.000000
140456529.000000,88531530.000000
140375423.000000,88585723.000000
140321230.000000,88666829.000000
140302200.000000,88762500.000000
140302200.000000,89287500.000000
140321230.000000,89383171.000000
140375423.000000,89464277.000000
140456529.000000,89518470.000000
140552200.000000,89537500.000000
Z" /> 
<path style="fill:#000000; fill-opacity:1.0; 
stroke:#000000; stroke-width:1.000000; stroke-opacity:1; 
stroke-linecap:round; stroke-linejoin:round;fill-rule:evenodd;"
d="M 141452200.000000,87712500.000000
141547871.000000,87693470.000000
141628977.000000,87639277.000000
141683170.000000,87558171.000000
141702200.000000,87462500.000000
141702200.000000,86937500.000000
141683170.000000,86841829.000000
141628977.000000,86760723.000000
141547871.000000,86706530.000000
141452200.000000,86687500.000000
140552200.000000,86687500.000000
140456529.000000,86706530.000000
140375423.000000,86760723.000000
140321230.000000,86841829.000000
140302200.000000,86937500.000000
140302200.000000,87462500.000000
140321230.000000,87558171.000000
140375423.000000,87639277.000000
140456529.000000,87693470.000000
140552200.000000,87712500.000000
Z" /> 
</g>
<g >
</g>
<g style="fill:#000000; fill-opacity:1.0; 
stroke:#000000; stroke-width:1.000000; stroke-opacity:1; 
stroke-linecap:round; stroke-linejoin:round;">
<path style="fill:#000000; fill-opacity:1.0; 
stroke:#000000; stroke-width:1.000000; stroke-opacity:1; 
stroke-linecap:round; stroke-linejoin:round;fill-rule:evenodd;"
d="M 152389700.000000,91450000.000000
152408730.000000,91545671.000000
152462923.000000,91626777.000000
152544029.000000,91680970.000000
152639700.000000,91700000.000000
153164700.000000,91700000.000000
153260371.000000,91680970.000000
153341477.000000,91626777.000000
153395670.000000,91545671.000000
153414700.000000,91450000.000000
153414700.000000,90550000.000000
153395670.000000,90454329.000000
153341477.000000,90373223.000000
153260371.000000,90319030.000000
153164700.000000,90300000.000000
152639700.000000,90300000.000000
152544029.000000,90319030.000000
152462923.000000,90373223.000000
152408730.000000,90454329.000000
152389700.000000,90550000.000000
Z" /> 
<path style="fill:#000000; fill-opacity:1.0; 
stroke:#000000; stroke-width:1.000000; stroke-opacity:1; 
stroke-linecap:round; stroke-linejoin:round;fill-rule:evenodd;"
d="M 154214700.000000,91450000.000000
154233730.000000,91545671.000000
154287923.000000,91626777.000000
154369029.000000,91680970.000000
154464700.000000,91700000.000000
154989700.000000,91700000.000000
155085371.000000,91680970.000000
155166477.000000,91626777.000000
155220670.000000,91545671.000000
155239700.000000,91450000.000000
155239700.000000,90550000.000000
155220670.000000,90454329.000000
155166477.000000,90373223.000000
155085371.000000,90319030.000000
154989700.000000,90300000.000000
154464700.000000,90300000.000000
154369029.000000,90319030.000000
154287923.000000,90373223.000000
154233730.000000,90454329.000000
154214700.000000,90550000.000000
Z" /> 
</g>
<g >
</g>
<g style="fill:#000000; fill-opacity:1.0; 
stroke:#000000; stroke-width:1.000000; stroke-opacity:1; 
stroke-linecap:round; stroke-linejoin:round;">
<path style="fill:#000000; fill-opacity:1.0; 
stroke:#000000; stroke-width:1.000000; stroke-opacity:1; 
stroke-linecap:round; stroke-linejoin:round;fill-rule:evenodd;"
d="M 131277200.000000,82612500.000000
131181529.000000,82631530.000000
131100423.000000,82685723.000000
131046230.000000,82766829.000000
131027200.000000,82862500.000000
131027200.000000,83387500.000000
131046230.000000,83483171.000000
131100423.000000,83564277.000000
131181529.000000,83618470.000000
131277200.000000,83637500.000000
132177200.000000,83637500.000000
132272871.000000,83618470.000000
132353977.000000,83564277.000000
132408170.000000,83483171.000000
132427200.000000,83387500.000000
132427200.000000,82862500.000000
132408170.000000,82766829.000000
132353977.000000,82685723.000000
132272871.000000,82631530.000000
132177200.000000,82612500.000000
Z" /> 
<path style="fill:#000000; fill-opacity:1.0; 
stroke:#000000; stroke-width:1.000000; stroke-opacity:1; 
stroke-linecap:round; stroke-linejoin:round;fill-rule:evenodd;"
d="M 131277200.000000,84437500.000000
131181529.000000,84456530.000000
131100423.000000,84510723.000000
131046230.000000,84591829.000000
131027200.000000,84687500.000000
131027200.000000,85212500.000000
131046230.000000,85308171.000000
131100423.000000,85389277.000000
131181529.000000,85443470.000000
131277200.000000,85462500.000000
132177200.000000,85462500.000000
132272871.000000,85443470.000000
132353977.000000,85389277.000000
132408170.000000,85308171.000000
132427200.000000,85212500.000000
132427200.000000,84687500.000000
132408170.000000,84591829.000000
132353977.000000,84510723.000000
132272871.000000,84456530.000000
132177200.000000,84437500.000000
Z" /> 
</g>
<g >
</g>
<g style="fill:#000000; fill-opacity:1.0; 
stroke:#000000; stroke-width:1.000000; stroke-opacity:1; 
stroke-linecap:round; stroke-linejoin:round;">
<path style="fill:#000000; fill-opacity:1.0; 
stroke:#000000; stroke-width:1.000000; stroke-opacity:1; 
stroke-linecap:round; stroke-linejoin:round;fill-rule:evenodd;"
d="M 145889700.000000,84350000.000000
145908730.000000,84445671.000000
145962923.000000,84526777.000000
146044029.000000,84580970.000000
146139700.000000,84600000.000000
146664700.000000,84600000.000000
146760371.000000,84580970.000000
146841477.000000,84526777.000000
146895670.000000,84445671.000000
146914700.000000,84350000.000000
146914700.000000,83450000.000000
146895670.000000,83354329.000000
146841477.000000,83273223.000000
146760371.000000,83219030.000000
146664700.000000,83200000.000000
146139700.000000,83200000.000000
146044029.000000,83219030.000000
145962923.000000,83273223.000000
145908730.000000,83354329.000000
145889700.000000,83450000.000000
Z" /> 
<path style="fill:#000000; fill-opacity:1.0; 
stroke:#000000; stroke-width:1.000000; stroke-opacity:1; 
stroke-linecap:round; stroke-linejoin:round;fill-rule:evenodd;"
d="M 147714700.000000,84350000.000000
147733730.000000,84445671.000000
147787923.000000,84526777.000000
147869029.000000,84580970.000000
147964700.000000,84600000.000000
148489700.000000,84600000.000000
148585371.000000,84580970.000000
148666477.000000,84526777.000000
148720670.000000,84445671.000000
148739700.000000,84350000.000000
148739700.000000,83450000.000000
148720670.000000,83354329.000000
148666477.000000,83273223.000000
148585371.000000,83219030.000000
148489700.000000,83200000.000000
147964700.000000,83200000.000000
147869029.000000,83219030.000000
147787923.000000,83273223.000000
147733730.000000,83354329.000000
147714700.000000,83450000.000000
Z" /> 
</g>
<g >
</g>
<g style="fill:#000000; fill-opacity:1.0; 
stroke:#000000; stroke-width:1.000000; stroke-opacity:1; 
stroke-linecap:round; stroke-linejoin:round;">
<path style="fill:#000000; fill-opacity:1.0; 
stroke:#000000; stroke-width:1.000000; stroke-opacity:1; 
stroke-linecap:round; stroke-linejoin:round;fill-rule:evenodd;"
d="M 153827200.000000,89840000.000000
153838618.000000,89897403.000000
153871134.000000,89946066.000000
153919797.000000,89978582.000000
153977200.000000,89990000.000000
155427200.000000,89990000.000000
155484603.000000,89978582.000000
155533266.000000,89946066.000000
155565782.000000,89897403.000000
155577200.000000,89840000.000000
155577200.000000,89540000.000000
155565782.000000,89482597.000000
155533266.000000,89433934.000000
155484603.000000,89401418.000000
155427200.000000,89390000.000000
153977200.000000,89390000.000000
153919797.000000,89401418.000000
153871134.000000,89433934.000000
153838618.000000,89482597.000000
153827200.000000,89540000.000000
Z" /> 
<path style="fill:#000000; fill-opacity:1.0; 
stroke:#000000; stroke-width:1.000000; stroke-opacity:1; 
stroke-linecap:round; stroke-linejoin:round;fill-rule:evenodd;"
d="M 153827200.000000,88570000.000000
153838618.000000,88627403.000000
153871134.000000,88676066.000000
153919797.000000,88708582.000000
153977200.000000,88720000.000000
155427200.000000,88720000.000000
155484603.000000,88708582.000000
155533266.000000,88676066.000000
155565782.000000,88627403.000000
155577200.000000,88570000.000000
155577200.000000,88270000.000000
155565782.000000,88212597.000000
155533266.000000,88163934.000000
155484603.000000,88131418.000000
155427200.000000,88120000.000000
153977200.000000,88120000.000000
153919797.000000,88131418.000000
153871134.000000,88163934.000000
153838618.000000,88212597.000000
153827200.000000,88270000.000000
Z" /> 
<path style="fill:#000000; fill-opacity:1.0; 
stroke:#000000; stroke-width:1.000000; stroke-opacity:1; 
stroke-linecap:round; stroke-linejoin:round;fill-rule:evenodd;"
d="M 153827200.000000,87300000.000000
153838618.000000,87357403.000000
153871134.000000,87406066.000000
153919797.000000,87438582.000000
153977200.000000,87450000.000000
155427200.000000,87450000.000000
155484603.000000,87438582.000000
155533266.000000,87406066.000000
155565782.000000,87357403.000000
155577200.000000,87300000.000000
155577200.000000,87000000.000000
155565782.000000,86942597.000000
155533266.000000,86893934.000000
155484603.000000,86861418.000000
155427200.000000,86850000.000000
153977200.000000,86850000.000000
153919797.000000,86861418.000000
153871134.000000,86893934.000000
153838618.000000,86942597.000000
153827200.000000,87000000.000000
Z" /> 
<path style="fill:#000000; fill-opacity:1.0; 
stroke:#000000; stroke-width:1.000000; stroke-opacity:1; 
stroke-linecap:round; stroke-linejoin:round;fill-rule:evenodd;"
d="M 153827200.000000,86030000.000000
153838618.000000,86087403.000000
153871134.000000,86136066.000000
153919797.000000,86168582.000000
153977200.000000,86180000.000000
155427200.000000,86180000.000000
155484603.000000,86168582.000000
155533266.000000,86136066.000000
155565782.000000,86087403.000000
155577200.000000,86030000.000000
155577200.000000,85730000.000000
155565782.000000,85672597.000000
155533266.000000,85623934.000000
155484603.000000,85591418.000000
155427200.000000,85580000.000000
153977200.000000,85580000.000000
153919797.000000,85591418.000000
153871134.000000,85623934.000000
153838618.000000,85672597.000000
153827200.000000,85730000.000000
Z" /> 
<path style="fill:#000000; fill-opacity:1.0; 
stroke:#000000; stroke-width:1.000000; stroke-opacity:1; 
stroke-linecap:round; stroke-linejoin:round;fill-rule:evenodd;"
d="M 153827200.000000,84760000.000000
153838618.000000,84817403.000000
153871134.000000,84866066.000000
153919797.000000,84898582.000000
153977200.000000,84910000.000000
155427200.000000,84910000.000000
155484603.000000,84898582.000000
155533266.000000,84866066.000000
155565782.000000,84817403.000000
155577200.000000,84760000.000000
155577200.000000,84460000.000000
155565782.000000,84402597.000000
155533266.000000,84353934.000000
155484603.000000,84321418.000000
155427200.000000,84310000.000000
153977200.000000,84310000.000000
153919797.000000,84321418.000000
153871134.000000,84353934.000000
153838618.000000,84402597.000000
153827200.000000,84460000.000000
Z" /> 
<path style="fill:#000000; fill-opacity:1.0; 
stroke:#000000; stroke-width:1.000000; stroke-opacity:1; 
stroke-linecap:round; stroke-linejoin:round;fill-rule:evenodd;"
d="M 153827200.000000,83490000.000000
153838618.000000,83547403.000000
153871134.000000,83596066.000000
153919797.000000,83628582.000000
153977200.000000,83640000.000000
155427200.000000,83640000.000000
155484603.000000,83628582.000000
155533266.000000,83596066.000000
155565782.000000,83547403.000000
155577200.000000,83490000.000000
155577200.000000,83190000.000000
155565782.000000,83132597.000000
155533266.000000,83083934.000000
155484603.000000,83051418.000000
155427200.000000,83040000.000000
153977200.000000,83040000.000000
153919797.000000,83051418.000000
153871134.000000,83083934.000000
153838618.000000,83132597.000000
153827200.000000,83190000.000000
Z" /> 
<path style="fill:#000000; fill-opacity:1.0; 
stroke:#000000; stroke-width:1.000000; stroke-opacity:1; 
stroke-linecap:round; stroke-linejoin:round;fill-rule:evenodd;"
d="M 153827200.000000,82220000.000000
153838618.000000,82277403.000000
153871134.000000,82326066.000000
153919797.000000,82358582.000000
153977200.000000,82370000.000000
155427200.000000,82370000.000000
155484603.000000,82358582.000000
155533266.000000,82326066.000000
155565782.000000,82277403.000000
155577200.000000,82220000.000000
155577200.000000,81920000.000000
155565782.000000,81862597.000000
155533266.000000,81813934.000000
155484603.000000,81781418.000000
155427200.000000,81770000.000000
153977200.000000,81770000.000000
153919797.000000,81781418.000000
153871134.000000,81813934.000000
153838618.000000,81862597.000000
153827200.000000,81920000.000000
Z" /> 
<path style="fill:#000000; fill-opacity:1.0; 
stroke:#000000; stroke-width:1.000000; stroke-opacity:1; 
stroke-linecap:round; stroke-linejoin:round;fill-rule:evenodd;"
d="M 153827200.000000,80950000.000000
153838618.000000,81007403.000000
153871134.000000,81056066.000000
153919797.000000,81088582.000000
153977200.000000,81100000.000000
155427200.000000,81100000.000000
155484603.000000,81088582.000000
155533266.000000,81056066.000000
155565782.000000,81007403.000000
155577200.000000,80950000.000000
155577200.000000,80650000.000000
155565782.000000,80592597.000000
155533266.000000,80543934.000000
155484603.000000,80511418.000000
155427200.000000,80500000.000000
153977200.000000,80500000.000000
153919797.000000,80511418.000000
153871134.000000,80543934.000000
153838618.000000,80592597.000000
153827200.000000,80650000.000000
Z" /> 
<path style="fill:#000000; fill-opacity:1.0; 
stroke:#000000; stroke-width:1.000000; stroke-opacity:1; 
stroke-linecap:round; stroke-linejoin:round;fill-rule:evenodd;"
d="M 158977200.000000,80950000.000000
158988618.000000,81007403.000000
159021134.000000,81056066.000000
159069797.000000,81088582.000000
159127200.000000,81100000.000000
160577200.000000,81100000.000000
160634603.000000,81088582.000000
160683266.000000,81056066.000000
160715782.000000,81007403.000000
160727200.000000,80950000.000000
160727200.000000,80650000.000000
160715782.000000,80592597.000000
160683266.000000,80543934.000000
160634603.000000,80511418.000000
160577200.000000,80500000.000000
159127200.000000,80500000.000000
159069797.000000,80511418.000000
159021134.000000,80543934.000000
158988618.000000,80592597.000000
158977200.000000,80650000.000000
Z" /> 
<path style="fill:#000000; fill-opacity:1.0; 
stroke:#000000; stroke-width:1.000000; stroke-opacity:1; 
stroke-linecap:round; stroke-linejoin:round;fill-rule:evenodd;"
d="M 158977200.000000,82220000.000000
158988618.000000,82277403.000000
159021134.000000,82326066.000000
159069797.000000,82358582.000000
159127200.000000,82370000.000000
160577200.000000,82370000.000000
160634603.000000,82358582.000000
160683266.000000,82326066.000000
160715782.000000,82277403.000000
160727200.000000,82220000.000000
160727200.000000,81920000.000000
160715782.000000,81862597.000000
160683266.000000,81813934.000000
160634603.000000,81781418.000000
160577200.000000,81770000.000000
159127200.000000,81770000.000000
159069797.000000,81781418.000000
159021134.000000,81813934.000000
158988618.000000,81862597.000000
158977200.000000,81920000.000000
Z" /> 
<path style="fill:#000000; fill-opacity:1.0; 
stroke:#000000; stroke-width:1.000000; stroke-opacity:1; 
stroke-linecap:round; stroke-linejoin:round;fill-rule:evenodd;"
d="M 158977200.000000,83490000.000000
158988618.000000,83547403.000000
159021134.000000,83596066.000000
159069797.000000,83628582.000000
159127200.000000,83640000.000000
160577200.000000,83640000.000000
160634603.000000,83628582.000000
160683266.000000,83596066.000000
160715782.000000,83547403.000000
160727200.000000,83490000.000000
160727200.000000,83190000.000000
160715782.000000,83132597.000000
160683266.000000,83083934.000000
160634603.000000,83051418.000000
160577200.000000,83040000.000000
159127200.000000,83040000.000000
159069797.000000,83051418.000000
159021134.000000,83083934.000000
158988618.000000,83132597.000000
158977200.000000,83190000.000000
Z" /> 
<path style="fill:#000000; fill-opacity:1.0; 
stroke:#000000; stroke-width:1.000000; stroke-opacity:1; 
stroke-linecap:round; stroke-linejoin:round;fill-rule:evenodd;"
d="M 158977200.000000,84760000.000000
158988618.000000,84817403.000000
159021134.000000,84866066.000000
159069797.000000,84898582.000000
159127200.000000,84910000.000000
160577200.000000,84910000.000000
160634603.000000,84898582.000000
160683266.000000,84866066.000000
160715782.000000,84817403.000000
160727200.000000,84760000.000000
160727200.000000,84460000.000000
160715782.000000,84402597.000000
160683266.000000,84353934.000000
160634603.000000,84321418.000000
160577200.000000,84310000.000000
159127200.000000,84310000.000000
159069797.000000,84321418.000000
159021134.000000,84353934.000000
158988618.000000,84402597.000000
158977200.000000,84460000.000000
Z" /> 
<path style="fill:#000000; fill-opacity:1.0; 
stroke:#000000; stroke-width:1.000000; stroke-opacity:1; 
stroke-linecap:round; stroke-linejoin:round;fill-rule:evenodd;"
d="M 158977200.000000,86030000.000000
158988618.000000,86087403.000000
159021134.000000,86136066.000000
159069797.000000,86168582.000000
159127200.000000,86180000.000000
160577200.000000,86180000.000000
160634603.000000,86168582.000000
160683266.000000,86136066.000000
160715782.000000,86087403.000000
160727200.000000,86030000.000000
160727200.000000,85730000.000000
160715782.000000,85672597.000000
160683266.000000,85623934.000000
160634603.000000,85591418.000000
160577200.000000,85580000.000000
159127200.000000,85580000.000000
159069797.000000,85591418.000000
159021134.000000,85623934.000000
158988618.000000,85672597.000000
158977200.000000,85730000.000000
Z" /> 
<path style="fill:#000000; fill-opacity:1.0; 
stroke:#000000; stroke-width:1.000000; stroke-opacity:1; 
stroke-linecap:round; stroke-linejoin:round;fill-rule:evenodd;"
d="M 158977200.000000,87300000.000000
158988618.000000,87357403.000000
159021134.000000,87406066.000000
159069797.000000,87438582.000000
159127200.000000,87450000.000000
160577200.000000,87450000.000000
160634603.000000,87438582.000000
160683266.000000,87406066.000000
160715782.000000,87357403.000000
160727200.000000,87300000.000000
160727200.000000,87000000.000000
160715782.000000,86942597.000000
160683266.000000,86893934.000000
160634603.000000,86861418.000000
160577200.000000,86850000.000000
159127200.000000,86850000.000000
159069797.000000,86861418.000000
159021134.000000,86893934.000000
158988618.000000,86942597.000000
158977200.000000,87000000.000000
Z" /> 
<path style="fill:#000000; fill-opacity:1.0; 
stroke:#000000; stroke-width:1.000000; stroke-opacity:1; 
stroke-linecap:round; stroke-linejoin:round;fill-rule:evenodd;"
d="M 158977200.000000,88570000.000000
158988618.000000,88627403.000000
159021134.000000,88676066.000000
159069797.000000,88708582.000000
159127200.000000,88720000.000000
160577200.000000,88720000.000000
160634603.000000,88708582.000000
160683266.000000,88676066.000000
160715782.000000,88627403.000000
160727200.000000,88570000.000000
160727200.000000,88270000.000000
160715782.000000,88212597.000000
160683266.000000,88163934.000000
160634603.000000,88131418.000000
160577200.000000,88120000.000000
159127200.000000,88120000.000000
159069797.000000,88131418.000000
159021134.000000,88163934.000000
158988618.000000,88212597.000000
158977200.000000,88270000.000000
Z" /> 
<path style="fill:#000000; fill-opacity:1.0; 
stroke:#000000; stroke-width:1.000000; stroke-opacity:1; 
stroke-linecap:round; stroke-linejoin:round;fill-rule:evenodd;"
d="M 158977200.000000,89840000.000000
158988618.000000,89897403.000000
159021134.000000,89946066.000000
159069797.000000,89978582.000000
159127200.000000,89990000.000000
160577200.000000,89990000.000000
160634603.000000,89978582.000000
160683266.000000,89946066.000000
160715782.000000,89897403.000000
160727200.000000,89840000.000000
160727200.000000,89540000.000000
160715782.000000,89482597.000000
160683266.000000,89433934.000000
160634603.000000,89401418.000000
160577200.000000,89390000.000000
159127200.000000,89390000.000000
159069797.000000,89401418.000000
159021134.000000,89433934.000000
158988618.000000,89482597.000000
158977200.000000,89540000.000000
Z" /> 
</g>
<g >
</g>
<g style="fill:#000000; fill-opacity:1.0; 
stroke:#000000; stroke-width:1.000000; stroke-opacity:1; 
stroke-linecap:round; stroke-linejoin:round;">
<path style="fill:#000000; fill-opacity:1.0; 
stroke:#000000; stroke-width:1.000000; stroke-opacity:1; 
stroke-linecap:round; stroke-linejoin:round;fill-rule:evenodd;"
d="M 141152200.000000,82787500.000000
141056529.000000,82806530.000000
140975423.000000,82860723.000000
140921230.000000,82941829.000000
140902200.000000,83037500.000000
140902200.000000,83562500.000000
140921230.000000,83658171.000000
140975423.000000,83739277.000000
141056529.000000,83793470.000000
141152200.000000,83812500.000000
142052200.000000,83812500.000000
142147871.000000,83793470.000000
142228977.000000,83739277.000000
142283170.000000,83658171.000000
142302200.000000,83562500.000000
142302200.000000,83037500.000000
142283170.000000,82941829.000000
142228977.000000,82860723.000000
142147871.000000,82806530.000000
142052200.000000,82787500.000000
Z" /> 
<path style="fill:#000000; fill-opacity:1.0; 
stroke:#000000; stroke-width:1.000000; stroke-opacity:1; 
stroke-linecap:round; stroke-linejoin:round;fill-rule:evenodd;"
d="M 141152200.000000,84612500.000000
141056529.000000,84631530.000000
140975423.000000,84685723.000000
140921230.000000,84766829.000000
140902200.000000,84862500.000000
140902200.000000,85387500.000000
140921230.000000,85483171.000000
140975423.000000,85564277.000000
141056529.000000,85618470.000000
141152200.000000,85637500.000000
142052200.000000,85637500.000000
142147871.000000,85618470.000000
142228977.000000,85564277.000000
142283170.000000,85483171.000000
142302200.000000,85387500.000000
142302200.000000,84862500.000000
142283170.000000,84766829.000000
142228977.000000,84685723.000000
142147871.000000,84631530.000000
142052200.000000,84612500.000000
Z" /> 
</g>
<g >
</g>
<g style="fill:#000000; fill-opacity:1.0; 
stroke:#000000; stroke-width:1.000000; stroke-opacity:1; 
stroke-linecap:round; stroke-linejoin:round;">
<path style="fill:#000000; fill-opacity:1.0; 
stroke:#000000; stroke-width:1.000000; stroke-opacity:1; 
stroke-linecap:round; stroke-linejoin:round;fill-rule:evenodd;"
d="M 128789700.000000,96150000.000000
128801118.000000,96207403.000000
128833634.000000,96256066.000000
128882297.000000,96288582.000000
128939700.000000,96300000.000000
130114700.000000,96300000.000000
130172103.000000,96288582.000000
130220766.000000,96256066.000000
130253282.000000,96207403.000000
130264700.000000,96150000.000000
130264700.000000,95850000.000000
130253282.000000,95792597.000000
130220766.000000,95743934.000000
130172103.000000,95711418.000000
130114700.000000,95700000.000000
128939700.000000,95700000.000000
128882297.000000,95711418.000000
128833634.000000,95743934.000000
128801118.000000,95792597.000000
128789700.000000,95850000.000000
Z" /> 
<path style="fill:#000000; fill-opacity:1.0; 
stroke:#000000; stroke-width:1.000000; stroke-opacity:1; 
stroke-linecap:round; stroke-linejoin:round;fill-rule:evenodd;"
d="M 128789700.000000,94250000.000000
128801118.000000,94307403.000000
128833634.000000,94356066.000000
128882297.000000,94388582.000000
128939700.000000,94400000.000000
130114700.000000,94400000.000000
130172103.000000,94388582.000000
130220766.000000,94356066.000000
130253282.000000,94307403.000000
130264700.000000,94250000.000000
130264700.000000,93950000.000000
130253282.000000,93892597.000000
130220766.000000,93843934.000000
130172103.000000,93811418.000000
130114700.000000,93800000.000000
128939700.000000,93800000.000000
128882297.000000,93811418.000000
128833634.000000,93843934.000000
128801118.000000,93892597.000000
128789700.000000,93950000.000000
Z" /> 
<path style="fill:#000000; fill-opacity:1.0; 
stroke:#000000; stroke-width:1.000000; stroke-opacity:1; 
stroke-linecap:round; stroke-linejoin:round;fill-rule:evenodd;"
d="M 130664700.000000,95200000.000000
130676118.000000,95257403.000000
130708634.000000,95306066.000000
130757297.000000,95338582.000000
130814700.000000,95350000.000000
131989700.000000,95350000.000000
132047103.000000,95338582.000000
132095766.000000,95306066.000000
132128282.000000,95257403.000000
132139700.000000,95200000.000000
132139700.000000,94900000.000000
132128282.000000,94842597.000000
132095766.000000,94793934.000000
132047103.000000,94761418.000000
131989700.000000,94750000.000000
130814700.000000,94750000.000000
130757297.000000,94761418.000000
130708634.000000,94793934.000000
130676118.000000,94842597.000000
130664700.000000,94900000.000000
Z" /> 
</g>
<g >
</g>
<g style="fill:#000000; fill-opacity:1.0; 
stroke:#000000; stroke-width:1.000000; stroke-opacity:1; 
stroke-linecap:round; stroke-linejoin:round;">
<path style="fill:#000000; fill-opacity:1.0; 
stroke:#000000; stroke-width:1.000000; stroke-opacity:1; 
stroke-linecap:round; stroke-linejoin:round;fill-rule:evenodd;"
d="M 129327200.000000,82612500.000000
129231529.000000,82631530.000000
129150423.000000,82685723.000000
129096230.000000,82766829.000000
129077200.000000,82862500.000000
129077200.000000,83387500.000000
129096230.000000,83483171.000000
129150423.000000,83564277.000000
129231529.000000,83618470.000000
129327200.000000,83637500.000000
130227200.000000,83637500.000000
130322871.000000,83618470.000000
130403977.000000,83564277.000000
130458170.000000,83483171.000000
130477200.000000,83387500.000000
130477200.000000,82862500.000000
130458170.000000,82766829.000000
130403977.000000,82685723.000000
130322871.000000,82631530.000000
130227200.000000,82612500.000000
Z" /> 
<path style="fill:#000000; fill-opacity:1.0; 
stroke:#000000; stroke-width:1.000000; stroke-opacity:1; 
stroke-linecap:round; stroke-linejoin:round;fill-rule:evenodd;"
d="M 129327200.000000,84437500.000000
129231529.000000,84456530.000000
129150423.000000,84510723.000000
129096230.000000,84591829.000000
129077200.000000,84687500.000000
129077200.000000,85212500.000000
129096230.000000,85308171.000000
129150423.000000,85389277.000000
129231529.000000,85443470.000000
129327200.000000,85462500.000000
130227200.000000,85462500.000000
130322871.000000,85443470.000000
130403977.000000,85389277.000000
130458170.000000,85308171.000000
130477200.000000,85212500.000000
130477200.000000,84687500.000000
130458170.000000,84591829.000000
130403977.000000,84510723.000000
130322871.000000,84456530.000000
130227200.000000,84437500.000000
Z" /> 
</g>
<g >
</g>
<g style="fill:#000000; fill-opacity:1.0; 
stroke:#000000; stroke-width:1.000000; stroke-opacity:1; 
stroke-linecap:round; stroke-linejoin:round;">
<circle cx="133602200.000000" cy="95000000.000000" r="500000.000000" /> 
</g>
<g style="fill:#000000; fill-opacity:1.0; 
stroke:#000000; stroke-width:21200.000000; stroke-opacity:1; 
stroke-linecap:round; stroke-linejoin:round;">
</g>
<g >
</g>
<g style="fill:#000000; fill-opacity:1.0; 
stroke:#000000; stroke-width:21200.000000; stroke-opacity:1; 
stroke-linecap:round; stroke-linejoin:round;">
</g>
<g style="fill:#000000; fill-opacity:1.0; 
stroke:#000000; stroke-width:1.000000; stroke-opacity:1; 
stroke-linecap:round; stroke-linejoin:round;">
<path style="fill:#000000; fill-opacity:1.0; 
stroke:#000000; stroke-width:1.000000; stroke-opacity:1; 
stroke-linecap:round; stroke-linejoin:round;fill-rule:evenodd;"
d="M 142764700.000000,89350000.000000
142783730.000000,89445671.000000
142837923.000000,89526777.000000
142919029.000000,89580970.000000
143014700.000000,89600000.000000
143539700.000000,89600000.000000
143635371.000000,89580970.000000
143716477.000000,89526777.000000
143770670.000000,89445671.000000
143789700.000000,89350000.000000
143789700.000000,88450000.000000
143770670.000000,88354329.000000
143716477.000000,88273223.000000
143635371.000000,88219030.000000
143539700.000000,88200000.000000
143014700.000000,88200000.000000
142919029.000000,88219030.000000
142837923.000000,88273223.000000
142783730.000000,88354329.000000
142764700.000000,88450000.000000
Z" /> 
<path style="fill:#000000; fill-opacity:1.0; 
stroke:#000000; stroke-width:1.000000; stroke-opacity:1; 
stroke-linecap:round; stroke-linejoin:round;fill-rule:evenodd;"
d="M 144589700.000000,89350000.000000
144608730.000000,89445671.000000
144662923.000000,89526777.000000
144744029.000000,89580970.000000
144839700.000000,89600000.000000
145364700.000000,89600000.000000
145460371.000000,89580970.000000
145541477.000000,89526777.000000
145595670.000000,89445671.000000
145614700.000000,89350000.000000
145614700.000000,88450000.000000
145595670.000000,88354329.000000
145541477.000000,88273223.000000
145460371.000000,88219030.000000
145364700.000000,88200000.000000
144839700.000000,88200000.000000
144744029.000000,88219030.000000
144662923.000000,88273223.000000
144608730.000000,88354329.000000
144589700.000000,88450000.000000
Z" /> 
</g>
<g >
</g>
<g style="fill:#000000; fill-opacity:1.0; 
stroke:#000000; stroke-width:1.000000; stroke-opacity:1; 
stroke-linecap:round; stroke-linejoin:round;">
<path style="fill:#000000; fill-opacity:1.0; 
stroke:#000000; stroke-width:1.000000; stroke-opacity:1; 
stroke-linecap:round; stroke-linejoin:round;fill-rule:evenodd;"
d="M 124992201.000000,91849999.000000
126692199.000000,91849999.000000
126692199.000000,90150001.000000
124992201.000000,90150001.000000
Z" /> 
<circle cx="128382200.000000" cy="91000000.000000" r="850000.000000" /> 
</g>
<g style="fill:#000000; fill-opacity:1.0; 
stroke:#000000; stroke-width:21200.000000; stroke-opacity:1; 
stroke-linecap:round; stroke-linejoin:round;">
</g>
<g style="fill:#000000; fill-opacity:1.0; 
stroke:#000000; stroke-width:1.000000; stroke-opacity:1; 
stroke-linecap:round; stroke-linejoin:round;">
<circle cx="130922200.000000" cy="91000000.000000" r="850000.000000" /> 
</g>
<g style="fill:#000000; fill-opacity:1.0; 
stroke:#000000; stroke-width:21200.000000; stroke-opacity:1; 
stroke-linecap:round; stroke-linejoin:round;">
</g>
<g style="fill:#000000; fill-opacity:1.0; 
stroke:#000000; stroke-width:1.000000; stroke-opacity:1; 
stroke-linecap:round; stroke-linejoin:round;">
<circle cx="133462200.000000" cy="91000000.000000" r="850000.000000" /> 
</g>
<g style="fill:#000000; fill-opacity:1.0; 
stroke:#000000; stroke-width:21200.000000; stroke-opacity:1; 
stroke-linecap:round; stroke-linejoin:round;">
</g>
<g style="fill:#000000; fill-opacity:1.0; 
stroke:#000000; stroke-width:1.000000; stroke-opacity:1; 
stroke-linecap:round; stroke-linejoin:round;">
<circle cx="136002200.000000" cy="91000000.000000" r="850000.000000" /> 
</g>
<g style="fill:#000000; fill-opacity:1.0; 
stroke:#000000; stroke-width:21200.000000; stroke-opacity:1; 
stroke-linecap:round; stroke-linejoin:round;">
</g>
<g style="fill:#000000; fill-opacity:1.0; 
stroke:#000000; stroke-width:1.000000; stroke-opacity:1; 
stroke-linecap:round; stroke-linejoin:round;">
<circle cx="136002200.000000" cy="81000000.000000" r="850000.000000" /> 
</g>
<g style="fill:#000000; fill-opacity:1.0; 
stroke:#000000; stroke-width:21200.000000; stroke-opacity:1; 
stroke-linecap:round; stroke-linejoin:round;">
</g>
<g style="fill:#000000; fill-opacity:1.0; 
stroke:#000000; stroke-width:1.000000; stroke-opacity:1; 
stroke-linecap:round; stroke-linejoin:round;">
<circle cx="133462200.000000" cy="81000000.000000" r="850000.000000" /> 
</g>
<g style="fill:#000000; fill-opacity:1.0; 
stroke:#000000; stroke-width:21200.000000; stroke-opacity:1; 
stroke-linecap:round; stroke-linejoin:round;">
</g>
<g style="fill:#000000; fill-opacity:1.0; 
stroke:#000000; stroke-width:1.000000; stroke-opacity:1; 
stroke-linecap:round; stroke-linejoin:round;">
<circle cx="130922200.000000" cy="81000000.000000" r="850000.000000" /> 
</g>
<g style="fill:#000000; fill-opacity:1.0; 
stroke:#000000; stroke-width:21200.000000; stroke-opacity:1; 
stroke-linecap:round; stroke-linejoin:round;">
</g>
<g style="fill:#000000; fill-opacity:1.0; 
stroke:#000000; stroke-width:1.000000; stroke-opacity:1; 
stroke-linecap:round; stroke-linejoin:round;">
<circle cx="128382200.000000" cy="81000000.000000" r="850000.000000" /> 
</g>
<g style="fill:#000000; fill-opacity:1.0; 
stroke:#000000; stroke-width:21200.000000; stroke-opacity:1; 
stroke-linecap:round; stroke-linejoin:round;">
</g>
<g style="fill:#000000; fill-opacity:1.0; 
stroke:#000000; stroke-width:1.000000; stroke-opacity:1; 
stroke-linecap:round; stroke-linejoin:round;">
<circle cx="125842200.000000" cy="81000000.000000" r="850000.000000" /> 
</g>
<g style="fill:#000000; fill-opacity:1.0; 
stroke:#000000; stroke-width:21200.000000; stroke-opacity:1; 
stroke-linecap:round; stroke-linejoin:round;">
</g>
<g >
</g>
<g style="fill:#000000; fill-opacity:1.0; 
stroke:#000000; stroke-width:21200.000000; stroke-opacity:1; 
stroke-linecap:round; stroke-linejoin:round;">
</g>
<g style="fill:#000000; fill-opacity:1.0; 
stroke:#000000; stroke-width:1.000000; stroke-opacity:1; 
stroke-linecap:round; stroke-linejoin:round;">
<path style="fill:#000000; fill-opacity:1.0; 
stroke:#000000; stroke-width:1.000000; stroke-opacity:1; 
stroke-linecap:round; stroke-linejoin:round;fill-rule:evenodd;"
d="M 140152201.000000,91849999.000000
141852199.000000,91849999.000000
141852199.000000,90150001.000000
140152201.000000,90150001.000000
Z" /> 
<circle cx="143542200.000000" cy="91000000.000000" r="850000.000000" /> 
</g>
<g style="fill:#000000; fill-opacity:1.0; 
stroke:#000000; stroke-width:21200.000000; stroke-opacity:1; 
stroke-linecap:round; stroke-linejoin:round;">
</g>
<g style="fill:#000000; fill-opacity:1.0; 
stroke:#000000; stroke-width:1.000000; stroke-opacity:1; 
stroke-linecap:round; stroke-linejoin:round;">
<circle cx="146082200.000000" cy="91000000.000000" r="850000.000000" /> 
</g>
<g style="fill:#000000; fill-opacity:1.0; 
stroke:#000000; stroke-width:21200.000000; stroke-opacity:1; 
stroke-linecap:round; stroke-linejoin:round;">
</g>
<g style="fill:#000000; fill-opacity:1.0; 
stroke:#000000; stroke-width:1.000000; stroke-opacity:1; 
stroke-linecap:round; stroke-linejoin:round;">
<circle cx="148622200.000000" cy="91000000.000000" r="850000.000000" /> 
</g>
<g style="fill:#000000; fill-opacity:1.0; 
stroke:#000000; stroke-width:21200.000000; stroke-opacity:1; 
stroke-linecap:round; stroke-linejoin:round;">
</g>
<g style="fill:#000000; fill-opacity:1.0; 
stroke:#000000; stroke-width:1.000000; stroke-opacity:1; 
stroke-linecap:round; stroke-linejoin:round;">
<circle cx="151162200.000000" cy="91000000.000000" r="850000.000000" /> 
</g>
<g style="fill:#000000; fill-opacity:1.0; 
stroke:#000000; stroke-width:21200.000000; stroke-opacity:1; 
stroke-linecap:round; stroke-linejoin:round;">
</g>
<g style="fill:#000000; fill-opacity:1.0; 
stroke:#000000; stroke-width:1.000000; stroke-opacity:1; 
stroke-linecap:round; stroke-linejoin:round;">
<circle cx="151162200.000000" cy="81000000.000000" r="850000.000000" /> 
</g>
<g style="fill:#000000; fill-opacity:1.0; 
stroke:#000000; stroke-width:21200.000000; stroke-opacity:1; 
stroke-linecap:round; stroke-linejoin:round;">
</g>
<g style="fill:#000000; fill-opacity:1.0; 
stroke:#000000; stroke-width:1.000000; stroke-opacity:1; 
stroke-linecap:round; stroke-linejoin:round;">
<circle cx="148622200.000000" cy="81000000.000000" r="850000.000000" /> 
</g>
<g style="fill:#000000; fill-opacity:1.0; 
stroke:#000000; stroke-width:21200.000000; stroke-opacity:1; 
stroke-linecap:round; stroke-linejoin:round;">
</g>
<g style="fill:#000000; fill-opacity:1.0; 
stroke:#000000; stroke-width:1.000000; stroke-opacity:1; 
stroke-linecap:round; stroke-linejoin:round;">
<circle cx="146082200.000000" cy="81000000.000000" r="850000.000000" /> 
</g>
<g style="fill:#000000; fill-opacity:1.0; 
stroke:#000000; stroke-width:21200.000000; stroke-opacity:1; 
stroke-linecap:round; stroke-linejoin:round;">
</g>
<g style="fill:#000000; fill-opacity:1.0; 
stroke:#000000; stroke-width:1.000000; stroke-opacity:1; 
stroke-linecap:round; stroke-linejoin:round;">
<circle cx="143542200.000000" cy="81000000.000000" r="850000.000000" /> 
</g>
<g style="fill:#000000; fill-opacity:1.0; 
stroke:#000000; stroke-width:21200.000000; stroke-opacity:1; 
stroke-linecap:round; stroke-linejoin:round;">
</g>
<g style="fill:#000000; fill-opacity:1.0; 
stroke:#000000; stroke-width:1.000000; stroke-opacity:1; 
stroke-linecap:round; stroke-linejoin:round;">
<circle cx="141002200.000000" cy="81000000.000000" r="850000.000000" /> 
</g>
<g style="fill:#000000; fill-opacity:1.0; 
stroke:#000000; stroke-width:21200.000000; stroke-opacity:1; 
stroke-linecap:round; stroke-linejoin:round;">
</g>
<g >
</g>
<g >
</g>
<g >
</g>
</g> 
</svg>
