<?xml version="1.0" standalone="no"?>
 <!DOCTYPE svg PUBLIC "-//W3C//DTD SVG 1.1//EN" 
 "http://www.w3.org/Graphics/SVG/1.1/DTD/svg11.dtd"> 
<svg
  xmlns:svg="http://www.w3.org/2000/svg"
  xmlns="http://www.w3.org/2000/svg"
  xmlns:xlink="http://www.w3.org/1999/xlink"
  version="1.1"
  width="29.700220cm" height="21.000720cm" viewBox="0 0 297002200 210007200">
<title>SVG Picture created as hot_fen_enc_board-F_Cu.svg date 2024/04/29 22:40:20 </title>
  <desc>Picture generated by PCBNEW </desc>
<g style="fill:#000000; fill-opacity:1.000000;stroke:#000000; stroke-opacity:1.000000;
stroke-linecap:round; stroke-linejoin:round;"
 transform="translate(0 0) scale(1 1)">
</g>
<g style="fill:#000000; fill-opacity:0.0; 
stroke:#000000; stroke-width:0.000000; stroke-opacity:1; 
stroke-linecap:round; stroke-linejoin:round;">
</g>
<g style="fill:#000000; fill-opacity:1.0; 
stroke:#000000; stroke-width:21200.000000; stroke-opacity:1; 
stroke-linecap:round; stroke-linejoin:round;">
<rect x="126577200.000000" y="54772500.000000" width="41386274.000000" height="34302500.000000" rx="0.000000" />
</g>
<g style="fill:#FFFFFF; fill-opacity:1.0; 
stroke:#FFFFFF; stroke-width:21200.000000; stroke-opacity:1; 
stroke-linecap:round; stroke-linejoin:round;">
</g>
<g style="fill:#FFFFFF; fill-opacity:1.0; 
stroke:#FFFFFF; stroke-width:200000.000000; stroke-opacity:1; 
stroke-linecap:round; stroke-linejoin:round;">
</g>
<g style="fill:#FFFFFF; fill-opacity:0.0; 
stroke:#FFFFFF; stroke-width:200000.000000; stroke-opacity:1; 
stroke-linecap:round; stroke-linejoin:round;">
<path d="M135902200 82200000
L156402200 82200000
" />
<path d="M156402200 82200000
L156402200 60200000
" />
<path d="M156402200 60200000
L135902200 60200000
" />
<path d="M135902200 60200000
L135902200 82200000
" />
<g >
</g>
<g style="fill:#FFFFFF; fill-opacity:0.0; 
stroke:#FFFFFF; stroke-width:1.000000; stroke-opacity:1; 
stroke-linecap:round; stroke-linejoin:round;">
</g>
<g style="fill:#FFFFFF; fill-opacity:1.0; 
stroke:#FFFFFF; stroke-width:1.000000; stroke-opacity:1; 
stroke-linecap:round; stroke-linejoin:round;">
<path style="fill:#FFFFFF; fill-opacity:1.0; 
stroke:#FFFFFF; stroke-width:1.000000; stroke-opacity:1; 
stroke-linecap:round; stroke-linejoin:round;fill-rule:evenodd;"
d="M 139662200.000000,70045000.000000
139681230.000000,70140671.000000
139735423.000000,70221777.000000
139816529.000000,70275970.000000
139912200.000000,70295000.000000
140412200.000000,70295000.000000
140507871.000000,70275970.000000
140588977.000000,70221777.000000
140643170.000000,70140671.000000
140662200.000000,70045000.000000
140662200.000000,69095000.000000
140643170.000000,68999329.000000
140588977.000000,68918223.000000
140507871.000000,68864030.000000
140412200.000000,68845000.000000
139912200.000000,68845000.000000
139816529.000000,68864030.000000
139735423.000000,68918223.000000
139681230.000000,68999329.000000
139662200.000000,69095000.000000
Z" /> 
<path style="fill:#FFFFFF; fill-opacity:1.0; 
stroke:#FFFFFF; stroke-width:1.000000; stroke-opacity:1; 
stroke-linecap:round; stroke-linejoin:round;fill-rule:evenodd;"
d="M 141562200.000000,70045000.000000
141581230.000000,70140671.000000
141635423.000000,70221777.000000
141716529.000000,70275970.000000
141812200.000000,70295000.000000
142312200.000000,70295000.000000
142407871.000000,70275970.000000
142488977.000000,70221777.000000
142543170.000000,70140671.000000
142562200.000000,70045000.000000
142562200.000000,69095000.000000
142543170.000000,68999329.000000
142488977.000000,68918223.000000
142407871.000000,68864030.000000
142312200.000000,68845000.000000
141812200.000000,68845000.000000
141716529.000000,68864030.000000
141635423.000000,68918223.000000
141581230.000000,68999329.000000
141562200.000000,69095000.000000
Z" /> 
</g>
<g >
</g>
<g style="fill:#FFFFFF; fill-opacity:1.0; 
stroke:#FFFFFF; stroke-width:1.000000; stroke-opacity:1; 
stroke-linecap:round; stroke-linejoin:round;">
<path style="fill:#FFFFFF; fill-opacity:1.0; 
stroke:#FFFFFF; stroke-width:1.000000; stroke-opacity:1; 
stroke-linecap:round; stroke-linejoin:round;fill-rule:evenodd;"
d="M 139624700.000000,62790000.000000
139643730.000000,62885671.000000
139697923.000000,62966777.000000
139779029.000000,63020970.000000
139874700.000000,63040000.000000
140399700.000000,63040000.000000
140495371.000000,63020970.000000
140576477.000000,62966777.000000
140630670.000000,62885671.000000
140649700.000000,62790000.000000
140649700.000000,61890000.000000
140630670.000000,61794329.000000
140576477.000000,61713223.000000
140495371.000000,61659030.000000
140399700.000000,61640000.000000
139874700.000000,61640000.000000
139779029.000000,61659030.000000
139697923.000000,61713223.000000
139643730.000000,61794329.000000
139624700.000000,61890000.000000
Z" /> 
<path style="fill:#FFFFFF; fill-opacity:1.0; 
stroke:#FFFFFF; stroke-width:1.000000; stroke-opacity:1; 
stroke-linecap:round; stroke-linejoin:round;fill-rule:evenodd;"
d="M 141449700.000000,62790000.000000
141468730.000000,62885671.000000
141522923.000000,62966777.000000
141604029.000000,63020970.000000
141699700.000000,63040000.000000
142224700.000000,63040000.000000
142320371.000000,63020970.000000
142401477.000000,62966777.000000
142455670.000000,62885671.000000
142474700.000000,62790000.000000
142474700.000000,61890000.000000
142455670.000000,61794329.000000
142401477.000000,61713223.000000
142320371.000000,61659030.000000
142224700.000000,61640000.000000
141699700.000000,61640000.000000
141604029.000000,61659030.000000
141522923.000000,61713223.000000
141468730.000000,61794329.000000
141449700.000000,61890000.000000
Z" /> 
</g>
<g >
</g>
<g style="fill:#FFFFFF; fill-opacity:1.0; 
stroke:#FFFFFF; stroke-width:1.000000; stroke-opacity:1; 
stroke-linecap:round; stroke-linejoin:round;">
<path style="fill:#FFFFFF; fill-opacity:1.0; 
stroke:#FFFFFF; stroke-width:1.000000; stroke-opacity:1; 
stroke-linecap:round; stroke-linejoin:round;fill-rule:evenodd;"
d="M 139662200.000000,67115000.000000
139681230.000000,67210671.000000
139735423.000000,67291777.000000
139816529.000000,67345970.000000
139912200.000000,67365000.000000
140412200.000000,67365000.000000
140507871.000000,67345970.000000
140588977.000000,67291777.000000
140643170.000000,67210671.000000
140662200.000000,67115000.000000
140662200.000000,66165000.000000
140643170.000000,66069329.000000
140588977.000000,65988223.000000
140507871.000000,65934030.000000
140412200.000000,65915000.000000
139912200.000000,65915000.000000
139816529.000000,65934030.000000
139735423.000000,65988223.000000
139681230.000000,66069329.000000
139662200.000000,66165000.000000
Z" /> 
<path style="fill:#FFFFFF; fill-opacity:1.0; 
stroke:#FFFFFF; stroke-width:1.000000; stroke-opacity:1; 
stroke-linecap:round; stroke-linejoin:round;fill-rule:evenodd;"
d="M 141562200.000000,67115000.000000
141581230.000000,67210671.000000
141635423.000000,67291777.000000
141716529.000000,67345970.000000
141812200.000000,67365000.000000
142312200.000000,67365000.000000
142407871.000000,67345970.000000
142488977.000000,67291777.000000
142543170.000000,67210671.000000
142562200.000000,67115000.000000
142562200.000000,66165000.000000
142543170.000000,66069329.000000
142488977.000000,65988223.000000
142407871.000000,65934030.000000
142312200.000000,65915000.000000
141812200.000000,65915000.000000
141716529.000000,65934030.000000
141635423.000000,65988223.000000
141581230.000000,66069329.000000
141562200.000000,66165000.000000
Z" /> 
</g>
<g >
</g>
<g style="fill:#FFFFFF; fill-opacity:1.0; 
stroke:#FFFFFF; stroke-width:1.000000; stroke-opacity:1; 
stroke-linecap:round; stroke-linejoin:round;">
<path style="fill:#FFFFFF; fill-opacity:1.0; 
stroke:#FFFFFF; stroke-width:1.000000; stroke-opacity:1; 
stroke-linecap:round; stroke-linejoin:round;fill-rule:evenodd;"
d="M 147389700.000000,67475000.000000
147370670.000000,67379329.000000
147316477.000000,67298223.000000
147235371.000000,67244030.000000
147139700.000000,67225000.000000
146514700.000000,67225000.000000
146419029.000000,67244030.000000
146337923.000000,67298223.000000
146283730.000000,67379329.000000
146264700.000000,67475000.000000
146264700.000000,68725000.000000
146283730.000000,68820671.000000
146337923.000000,68901777.000000
146419029.000000,68955970.000000
146514700.000000,68975000.000000
147139700.000000,68975000.000000
147235371.000000,68955970.000000
147316477.000000,68901777.000000
147370670.000000,68820671.000000
147389700.000000,68725000.000000
Z" /> 
<path style="fill:#FFFFFF; fill-opacity:1.0; 
stroke:#FFFFFF; stroke-width:1.000000; stroke-opacity:1; 
stroke-linecap:round; stroke-linejoin:round;fill-rule:evenodd;"
d="M 144464700.000000,67475000.000000
144445670.000000,67379329.000000
144391477.000000,67298223.000000
144310371.000000,67244030.000000
144214700.000000,67225000.000000
143589700.000000,67225000.000000
143494029.000000,67244030.000000
143412923.000000,67298223.000000
143358730.000000,67379329.000000
143339700.000000,67475000.000000
143339700.000000,68725000.000000
143358730.000000,68820671.000000
143412923.000000,68901777.000000
143494029.000000,68955970.000000
143589700.000000,68975000.000000
144214700.000000,68975000.000000
144310371.000000,68955970.000000
144391477.000000,68901777.000000
144445670.000000,68820671.000000
144464700.000000,68725000.000000
Z" /> 
</g>
<g >
</g>
<g style="fill:#FFFFFF; fill-opacity:1.0; 
stroke:#FFFFFF; stroke-width:1.000000; stroke-opacity:1; 
stroke-linecap:round; stroke-linejoin:round;">
<path style="fill:#FFFFFF; fill-opacity:1.0; 
stroke:#FFFFFF; stroke-width:1.000000; stroke-opacity:1; 
stroke-linecap:round; stroke-linejoin:round;fill-rule:evenodd;"
d="M 149702200.000000,68277500.000000
149606529.000000,68296530.000000
149525423.000000,68350723.000000
149471230.000000,68431829.000000
149452200.000000,68527500.000000
149452200.000000,69052500.000000
149471230.000000,69148171.000000
149525423.000000,69229277.000000
149606529.000000,69283470.000000
149702200.000000,69302500.000000
150602200.000000,69302500.000000
150697871.000000,69283470.000000
150778977.000000,69229277.000000
150833170.000000,69148171.000000
150852200.000000,69052500.000000
150852200.000000,68527500.000000
150833170.000000,68431829.000000
150778977.000000,68350723.000000
150697871.000000,68296530.000000
150602200.000000,68277500.000000
Z" /> 
<path style="fill:#FFFFFF; fill-opacity:1.0; 
stroke:#FFFFFF; stroke-width:1.000000; stroke-opacity:1; 
stroke-linecap:round; stroke-linejoin:round;fill-rule:evenodd;"
d="M 149702200.000000,70102500.000000
149606529.000000,70121530.000000
149525423.000000,70175723.000000
149471230.000000,70256829.000000
149452200.000000,70352500.000000
149452200.000000,70877500.000000
149471230.000000,70973171.000000
149525423.000000,71054277.000000
149606529.000000,71108470.000000
149702200.000000,71127500.000000
150602200.000000,71127500.000000
150697871.000000,71108470.000000
150778977.000000,71054277.000000
150833170.000000,70973171.000000
150852200.000000,70877500.000000
150852200.000000,70352500.000000
150833170.000000,70256829.000000
150778977.000000,70175723.000000
150697871.000000,70121530.000000
150602200.000000,70102500.000000
Z" /> 
</g>
<g >
</g>
<g style="fill:#FFFFFF; fill-opacity:1.0; 
stroke:#FFFFFF; stroke-width:1.000000; stroke-opacity:1; 
stroke-linecap:round; stroke-linejoin:round;">
<path style="fill:#FFFFFF; fill-opacity:1.0; 
stroke:#FFFFFF; stroke-width:1.000000; stroke-opacity:1; 
stroke-linecap:round; stroke-linejoin:round;fill-rule:evenodd;"
d="M 140639700.000000,73250000.000000
140620670.000000,73154329.000000
140566477.000000,73073223.000000
140485371.000000,73019030.000000
140389700.000000,73000000.000000
139864700.000000,73000000.000000
139769029.000000,73019030.000000
139687923.000000,73073223.000000
139633730.000000,73154329.000000
139614700.000000,73250000.000000
139614700.000000,74150000.000000
139633730.000000,74245671.000000
139687923.000000,74326777.000000
139769029.000000,74380970.000000
139864700.000000,74400000.000000
140389700.000000,74400000.000000
140485371.000000,74380970.000000
140566477.000000,74326777.000000
140620670.000000,74245671.000000
140639700.000000,74150000.000000
Z" /> 
<path style="fill:#FFFFFF; fill-opacity:1.0; 
stroke:#FFFFFF; stroke-width:1.000000; stroke-opacity:1; 
stroke-linecap:round; stroke-linejoin:round;fill-rule:evenodd;"
d="M 138814700.000000,73250000.000000
138795670.000000,73154329.000000
138741477.000000,73073223.000000
138660371.000000,73019030.000000
138564700.000000,73000000.000000
138039700.000000,73000000.000000
137944029.000000,73019030.000000
137862923.000000,73073223.000000
137808730.000000,73154329.000000
137789700.000000,73250000.000000
137789700.000000,74150000.000000
137808730.000000,74245671.000000
137862923.000000,74326777.000000
137944029.000000,74380970.000000
138039700.000000,74400000.000000
138564700.000000,74400000.000000
138660371.000000,74380970.000000
138741477.000000,74326777.000000
138795670.000000,74245671.000000
138814700.000000,74150000.000000
Z" /> 
</g>
<g >
</g>
<g style="fill:#FFFFFF; fill-opacity:1.0; 
stroke:#FFFFFF; stroke-width:1.000000; stroke-opacity:1; 
stroke-linecap:round; stroke-linejoin:round;">
<path style="fill:#FFFFFF; fill-opacity:1.0; 
stroke:#FFFFFF; stroke-width:1.000000; stroke-opacity:1; 
stroke-linecap:round; stroke-linejoin:round;fill-rule:evenodd;"
d="M 142474700.000000,63990000.000000
142455670.000000,63894329.000000
142401477.000000,63813223.000000
142320371.000000,63759030.000000
142224700.000000,63740000.000000
141699700.000000,63740000.000000
141604029.000000,63759030.000000
141522923.000000,63813223.000000
141468730.000000,63894329.000000
141449700.000000,63990000.000000
141449700.000000,64890000.000000
141468730.000000,64985671.000000
141522923.000000,65066777.000000
141604029.000000,65120970.000000
141699700.000000,65140000.000000
142224700.000000,65140000.000000
142320371.000000,65120970.000000
142401477.000000,65066777.000000
142455670.000000,64985671.000000
142474700.000000,64890000.000000
Z" /> 
<path style="fill:#FFFFFF; fill-opacity:1.0; 
stroke:#FFFFFF; stroke-width:1.000000; stroke-opacity:1; 
stroke-linecap:round; stroke-linejoin:round;fill-rule:evenodd;"
d="M 140649700.000000,63990000.000000
140630670.000000,63894329.000000
140576477.000000,63813223.000000
140495371.000000,63759030.000000
140399700.000000,63740000.000000
139874700.000000,63740000.000000
139779029.000000,63759030.000000
139697923.000000,63813223.000000
139643730.000000,63894329.000000
139624700.000000,63990000.000000
139624700.000000,64890000.000000
139643730.000000,64985671.000000
139697923.000000,65066777.000000
139779029.000000,65120970.000000
139874700.000000,65140000.000000
140399700.000000,65140000.000000
140495371.000000,65120970.000000
140576477.000000,65066777.000000
140630670.000000,64985671.000000
140649700.000000,64890000.000000
Z" /> 
</g>
<g >
</g>
<g style="fill:#FFFFFF; fill-opacity:1.0; 
stroke:#FFFFFF; stroke-width:1.000000; stroke-opacity:1; 
stroke-linecap:round; stroke-linejoin:round;">
<path style="fill:#FFFFFF; fill-opacity:1.0; 
stroke:#FFFFFF; stroke-width:1.000000; stroke-opacity:1; 
stroke-linecap:round; stroke-linejoin:round;fill-rule:evenodd;"
d="M 142474700.000000,71220000.000000
142455670.000000,71124329.000000
142401477.000000,71043223.000000
142320371.000000,70989030.000000
142224700.000000,70970000.000000
141699700.000000,70970000.000000
141604029.000000,70989030.000000
141522923.000000,71043223.000000
141468730.000000,71124329.000000
141449700.000000,71220000.000000
141449700.000000,72120000.000000
141468730.000000,72215671.000000
141522923.000000,72296777.000000
141604029.000000,72350970.000000
141699700.000000,72370000.000000
142224700.000000,72370000.000000
142320371.000000,72350970.000000
142401477.000000,72296777.000000
142455670.000000,72215671.000000
142474700.000000,72120000.000000
Z" /> 
<path style="fill:#FFFFFF; fill-opacity:1.0; 
stroke:#FFFFFF; stroke-width:1.000000; stroke-opacity:1; 
stroke-linecap:round; stroke-linejoin:round;fill-rule:evenodd;"
d="M 140649700.000000,71220000.000000
140630670.000000,71124329.000000
140576477.000000,71043223.000000
140495371.000000,70989030.000000
140399700.000000,70970000.000000
139874700.000000,70970000.000000
139779029.000000,70989030.000000
139697923.000000,71043223.000000
139643730.000000,71124329.000000
139624700.000000,71220000.000000
139624700.000000,72120000.000000
139643730.000000,72215671.000000
139697923.000000,72296777.000000
139779029.000000,72350970.000000
139874700.000000,72370000.000000
140399700.000000,72370000.000000
140495371.000000,72350970.000000
140576477.000000,72296777.000000
140630670.000000,72215671.000000
140649700.000000,72120000.000000
Z" /> 
</g>
<g >
</g>
<g style="fill:#FFFFFF; fill-opacity:1.0; 
stroke:#FFFFFF; stroke-width:1.000000; stroke-opacity:1; 
stroke-linecap:round; stroke-linejoin:round;">
<path style="fill:#FFFFFF; fill-opacity:1.0; 
stroke:#FFFFFF; stroke-width:1.000000; stroke-opacity:1; 
stroke-linecap:round; stroke-linejoin:round;fill-rule:evenodd;"
d="M 138132201.000000,78049999.000000
139832199.000000,78049999.000000
139832199.000000,76350001.000000
138132201.000000,76350001.000000
Z" /> 
<circle cx="141522200.000000" cy="77200000.000000" r="850000.000000" /> 
<circle cx="144062200.000000" cy="77200000.000000" r="850000.000000" /> 
<circle cx="146602200.000000" cy="77200000.000000" r="850000.000000" /> 
<circle cx="149142200.000000" cy="77200000.000000" r="850000.000000" /> 
<circle cx="151682200.000000" cy="77200000.000000" r="850000.000000" /> 
</g>
<g >
</g>
<g style="fill:#FFFFFF; fill-opacity:1.0; 
stroke:#FFFFFF; stroke-width:1.000000; stroke-opacity:1; 
stroke-linecap:round; stroke-linejoin:round;">
<path style="fill:#FFFFFF; fill-opacity:1.0; 
stroke:#FFFFFF; stroke-width:1.000000; stroke-opacity:1; 
stroke-linecap:round; stroke-linejoin:round;fill-rule:evenodd;"
d="M 136852201.000000,64600001.000000
136852201.000000,66599999.000000
138852199.000000,66599999.000000
138852199.000000,64600001.000000
Z" /> 
<circle cx="137852200.000000" cy="70600000.000000" r="1000000.000000" /> 
</g>
<g style="fill:#FFFFFF; fill-opacity:1.0; 
stroke:#FFFFFF; stroke-width:21200.000000; stroke-opacity:1; 
stroke-linecap:round; stroke-linejoin:round;">
</g>
<g style="fill:#FFFFFF; fill-opacity:1.0; 
stroke:#FFFFFF; stroke-width:1.000000; stroke-opacity:1; 
stroke-linecap:round; stroke-linejoin:round;">
<circle cx="137852200.000000" cy="68100000.000000" r="1000000.000000" /> 
</g>
<g style="fill:#FFFFFF; fill-opacity:1.0; 
stroke:#FFFFFF; stroke-width:21200.000000; stroke-opacity:1; 
stroke-linecap:round; stroke-linejoin:round;">
</g>
<g style="fill:#FFFFFF; fill-opacity:1.0; 
stroke:#FFFFFF; stroke-width:1.000000; stroke-opacity:1; 
stroke-linecap:round; stroke-linejoin:round;">
<path style="fill:#FFFFFF; fill-opacity:1.0; 
stroke:#FFFFFF; stroke-width:1.000000; stroke-opacity:1; 
stroke-linecap:round; stroke-linejoin:round;fill-rule:evenodd;"
d="M 143752201.000000,61500001.000000
143752201.000000,63499999.000000
146952199.000000,63499999.000000
146952199.000000,61500001.000000
Z" /> 
<path style="fill:#FFFFFF; fill-opacity:1.0; 
stroke:#FFFFFF; stroke-width:1.000000; stroke-opacity:1; 
stroke-linecap:round; stroke-linejoin:round;fill-rule:evenodd;"
d="M 143752201.000000,72700001.000000
143752201.000000,74699999.000000
146952199.000000,74699999.000000
146952199.000000,72700001.000000
Z" /> 
<circle cx="152352200.000000" cy="70600000.000000" r="1000000.000000" /> 
</g>
<g style="fill:#FFFFFF; fill-opacity:1.0; 
stroke:#FFFFFF; stroke-width:21200.000000; stroke-opacity:1; 
stroke-linecap:round; stroke-linejoin:round;">
</g>
<g style="fill:#FFFFFF; fill-opacity:1.0; 
stroke:#FFFFFF; stroke-width:1.000000; stroke-opacity:1; 
stroke-linecap:round; stroke-linejoin:round;">
<circle cx="152352200.000000" cy="65600000.000000" r="1000000.000000" /> 
</g>
<g style="fill:#FFFFFF; fill-opacity:1.0; 
stroke:#FFFFFF; stroke-width:21200.000000; stroke-opacity:1; 
stroke-linecap:round; stroke-linejoin:round;">
</g>
<g >
</g>
<g >
</g>
<g style="fill:#FFFFFF; fill-opacity:1.0; 
stroke:#FFFFFF; stroke-width:21200.000000; stroke-opacity:1; 
stroke-linecap:round; stroke-linejoin:round;">
</g>
<g style="fill:#FFFFFF; fill-opacity:1.0; 
stroke:#FFFFFF; stroke-width:500000.000000; stroke-opacity:1; 
stroke-linecap:round; stroke-linejoin:round;">
</g>
<g style="fill:#FFFFFF; fill-opacity:0.0; 
stroke:#FFFFFF; stroke-width:500000.000000; stroke-opacity:1; 
stroke-linecap:round; stroke-linejoin:round;">
<path d="M137852200 68100000
L142022200 68100000
" />
<path d="M142022200 68100000
L143902200 68100000
" />
</g>
<g style="fill:#FFFFFF; fill-opacity:0.0; 
stroke:#FFFFFF; stroke-width:1800000.000000; stroke-opacity:1; 
stroke-linecap:round; stroke-linejoin:round;">
<path d="M151682200 77200000
L151682200 79320000
" />
</g>
<g style="fill:#FFFFFF; fill-opacity:0.0; 
stroke:#FFFFFF; stroke-width:500000.000000; stroke-opacity:1; 
stroke-linecap:round; stroke-linejoin:round;">
<path d="M154902200 68150000
L154902200 71800000
" />
<path d="M142062200 68060000
L142062200 66640000
" />
<path d="M148402200 68100000
L146827200 68100000
" />
</g>
<g style="fill:#FFFFFF; fill-opacity:0.0; 
stroke:#FFFFFF; stroke-width:1800000.000000; stroke-opacity:1; 
stroke-linecap:round; stroke-linejoin:round;">
<path d="M138982200 77200000
L138982200 79480000
" />
</g>
<g style="fill:#FFFFFF; fill-opacity:0.0; 
stroke:#FFFFFF; stroke-width:500000.000000; stroke-opacity:1; 
stroke-linecap:round; stroke-linejoin:round;">
<path d="M150902200 65600000
L148402200 68100000
" />
<path d="M142022200 68100000
L142062200 68060000
" />
<path d="M142062200 69570000
L142062200 68060000
" />
<path d="M151682200 75020000
L151682200 77200000
" />
<path d="M152352200 65600000
L150902200 65600000
" />
<path d="M152352200 65600000
L154902200 68150000
" />
<path d="M154902200 71800000
L151682200 75020000
" />
<path d="M137852200 65600000
L140002200 65600000
" />
<path d="M140162200 66640000
L140162200 65440000
" />
<path d="M140002200 65600000
L140162200 65440000
" />
</g>
<g style="fill:#FFFFFF; fill-opacity:0.0; 
stroke:#FFFFFF; stroke-width:800000.000000; stroke-opacity:1; 
stroke-linecap:round; stroke-linejoin:round;">
<path d="M137552200 65600000
L137852200 65600000
" />
</g>
<g style="fill:#FFFFFF; fill-opacity:0.0; 
stroke:#FFFFFF; stroke-width:500000.000000; stroke-opacity:1; 
stroke-linecap:round; stroke-linejoin:round;">
<path d="M140162200 62365000
L140137200 62340000
" />
<path d="M140162200 65440000
L140162200 62365000
" />
<path d="M140162200 71645000
L140137200 71670000
" />
</g>
<g style="fill:#FFFFFF; fill-opacity:0.0; 
stroke:#FFFFFF; stroke-width:1000000.000000; stroke-opacity:1; 
stroke-linecap:round; stroke-linejoin:round;">
<path d="M137812200 70640000
L137852200 70600000
" />
</g>
<g style="fill:#FFFFFF; fill-opacity:0.0; 
stroke:#FFFFFF; stroke-width:500000.000000; stroke-opacity:1; 
stroke-linecap:round; stroke-linejoin:round;">
<path d="M140002200 70600000
L140162200 70440000
" />
<path d="M140137200 71670000
L140137200 73690000
" />
<path d="M140162200 70440000
L140162200 71645000
" />
<path d="M140162200 69570000
L140162200 70440000
" />
<path d="M137852200 70600000
L140002200 70600000
" />
<path d="M140137200 73690000
L140127200 73700000
" />
<path d="M137202200 80400000
L137802200 81000000
" />
<path d="M137802200 81000000
L143802200 81000000
" />
<path d="M138302200 73700000
L137202200 74800000
" />
</g>
<g style="fill:#FFFFFF; fill-opacity:0.0; 
stroke:#FFFFFF; stroke-width:1800000.000000; stroke-opacity:1; 
stroke-linecap:round; stroke-linejoin:round;">
<path d="M144062200 77200000
L144062200 79440000
" />
</g>
<g style="fill:#FFFFFF; fill-opacity:0.0; 
stroke:#FFFFFF; stroke-width:500000.000000; stroke-opacity:1; 
stroke-linecap:round; stroke-linejoin:round;">
<path d="M137202200 74800000
L137202200 80400000
" />
<path d="M143802200 81000000
L144062200 80740000
" />
<path d="M144062200 80740000
L144062200 79440000
" />
<path d="M154102200 69800000
L154102200 71400000
" />
<path d="M153092200 68790000
L154102200 69800000
" />
<path d="M143102200 65580000
L141962200 64440000
" />
<path d="M143602200 66600000
L143102200 66100000
" />
<path d="M145402200 69500000
L145402200 67230000
" />
<path d="M144772200 66600000
L143602200 66600000
" />
<path d="M145402200 69500000
L148302200 69500000
" />
<path d="M143102200 66100000
L143102200 65580000
" />
<path d="M141962200 71540000
L144002200 69500000
" />
<path d="M145402200 67230000
L144772200 66600000
" />
<path d="M154102200 71400000
L149142200 76360000
" />
<path d="M149142200 76360000
L149142200 77200000
" />
</g>
<g style="fill:#FFFFFF; fill-opacity:0.0; 
stroke:#FFFFFF; stroke-width:1800000.000000; stroke-opacity:1; 
stroke-linecap:round; stroke-linejoin:round;">
<path d="M149142200 77200000
L149142200 79360000
" />
</g>
<g style="fill:#FFFFFF; fill-opacity:0.0; 
stroke:#FFFFFF; stroke-width:500000.000000; stroke-opacity:1; 
stroke-linecap:round; stroke-linejoin:round;">
<path d="M149012200 68790000
L150152200 68790000
" />
<path d="M150152200 68790000
L153092200 68790000
" />
<path d="M148302200 69500000
L149012200 68790000
" />
<path d="M144002200 69500000
L145402200 69500000
" />
<path d="M141962200 71670000
L141962200 71540000
" />
<path d="M143222200 75500000
L141522200 77200000
" />
</g>
<g style="fill:#FFFFFF; fill-opacity:0.0; 
stroke:#FFFFFF; stroke-width:1800000.000000; stroke-opacity:1; 
stroke-linecap:round; stroke-linejoin:round;">
<path d="M141522200 77200000
L141522200 79480000
" />
</g>
<g style="fill:#FFFFFF; fill-opacity:0.0; 
stroke:#FFFFFF; stroke-width:500000.000000; stroke-opacity:1; 
stroke-linecap:round; stroke-linejoin:round;">
<path d="M152352200 70600000
L150167200 70600000
" />
<path d="M150152200 70615000
L150152200 73050000
" />
<path d="M147702200 75500000
L143222200 75500000
" />
<path d="M150167200 70600000
L150152200 70615000
" />
<path d="M150152200 73050000
L147702200 75500000
" />
<path d="M153126720 60824520
L142577680 60824520
" />
<path d="M155702200 78000000
L155702200 63400000
" />
<path d="M146502200 79500000
L146502200 80500000
" />
<path d="M155702200 63400000
L153126720 60824520
" />
<path d="M146502200 80500000
L147002200 81000000
" />
<path d="M141962200 61440000
L141962200 62340000
" />
<path d="M146602200 79400000
L146502200 79500000
" />
<path d="M147002200 81000000
L152702200 81000000
" />
</g>
<g style="fill:#FFFFFF; fill-opacity:0.0; 
stroke:#FFFFFF; stroke-width:1800000.000000; stroke-opacity:1; 
stroke-linecap:round; stroke-linejoin:round;">
<path d="M146602200 77200000
L146602200 79400000
" />
</g>
<g style="fill:#FFFFFF; fill-opacity:0.0; 
stroke:#FFFFFF; stroke-width:500000.000000; stroke-opacity:1; 
stroke-linecap:round; stroke-linejoin:round;">
<path d="M142577680 60824520
L141962200 61440000
" />
<path d="M152702200 81000000
L155702200 78000000
" />
</g>
<g >
</g>
<g style="fill:#FFFFFF; fill-opacity:0.0; 
stroke:#FFFFFF; stroke-width:500000.000000; stroke-opacity:1; 
stroke-linecap:round; stroke-linejoin:round;">
<g >
</g>
<g style="fill:#FFFFFF; fill-opacity:1.0; 
stroke:#FFFFFF; stroke-width:1.000000; stroke-opacity:1; 
stroke-linecap:round; stroke-linejoin:round;">
<path style="fill:#FFFFFF; fill-opacity:1.0; 
stroke:#FFFFFF; stroke-width:1.000000; stroke-opacity:1; 
stroke-linecap:round; stroke-linejoin:round;fill-rule:evenodd;"
d="M 154669919.000000,60819454.000000
154589137.000000,60873430.000000
154535161.000000,60954212.000000
154516207.000000,61049500.000000
154535161.000000,61144788.000000
154589137.000000,61225570.000000
155376630.000000,62013063.000000
155457412.000000,62067039.000000
155552700.000000,62085993.000000
155647988.000000,62067039.000000
155728770.000000,62013063.000000
155782746.000000,61932281.000000
155801700.000000,61836993.000000
155801700.000000,61049500.000000
155782746.000000,60954212.000000
155728770.000000,60873430.000000
155647988.000000,60819454.000000
155552700.000000,60800500.000000
154765207.000000,60800500.000000
Z" /> 
<path style="fill:#FFFFFF; fill-opacity:1.0; 
stroke:#FFFFFF; stroke-width:1.000000; stroke-opacity:1; 
stroke-linecap:round; stroke-linejoin:round;fill-rule:evenodd;"
d="M 136656412.000000,60819454.000000
136575630.000000,60873430.000000
136521654.000000,60954212.000000
136502700.000000,61049500.000000
136502700.000000,63854807.000000
136521654.000000,63950095.000000
136575630.000000,64030877.000000
136656412.000000,64084853.000000
136751700.000000,64103807.000000
136778581.000000,64102351.000000
136804823.000000,64099500.000000
137414197.000000,64099500.000000
138883164.000000,64099501.000000
138978452.000000,64080547.000000
139059234.000000,64026571.000000
139113210.000000,63945789.000000
139130834.000000,63876199.000000
139133653.000000,63849029.000000
139133653.000000,63849027.000000
139135059.000000,63835481.000000
139165971.000000,63742824.000000
139185867.000000,63683190.000000
139190444.000000,63669471.000000
139209957.000000,63637937.000000
139282303.000000,63521028.000000
139316327.000000,63430026.000000
139312936.000000,63332930.000000
139279541.000000,63259651.000000
139281716.000000,63258311.000000
139197480.000000,63121654.000000
139197480.000000,63121653.000000
139189886.000000,63109334.000000
139134790.000000,62943228.000000
139124200.000000,62839866.000000
139124200.000000,61840134.000000
139135059.000000,61735481.000000
139190444.000000,61569471.000000
139224677.000000,61514150.000000
139274924.000000,61432953.000000
139282534.000000,61420655.000000
139406389.000000,61297016.000000
139418703.000000,61289426.000000
139418705.000000,61289424.000000
139464062.000000,61261466.000000
139535233.000000,61195331.000000
139575676.000000,61106994.000000
139579237.000000,61009904.000000
139545371.000000,60918843.000000
139479236.000000,60847672.000000
139390899.000000,60807229.000000
139333405.000000,60800500.000000
136751700.000000,60800500.000000
Z" /> 
<path style="fill:#FFFFFF; fill-opacity:1.0; 
stroke:#FFFFFF; stroke-width:1.000000; stroke-opacity:1; 
stroke-linecap:round; stroke-linejoin:round;fill-rule:evenodd;"
d="M 147606412.000000,61593974.000000
147525630.000000,61647950.000000
147471654.000000,61728732.000000
147452700.000000,61824020.000000
147452699.000000,63547376.000000
147446051.000000,63608580.000000
147395726.000000,63742824.000000
147309746.000000,63857546.000000
147195024.000000,63943526.000000
147178413.000000,63949753.000000
147075396.000000,63988372.000000
147075395.000000,63988372.000000
147060780.000000,63993851.000000
146999577.000000,64000500.000000
145353301.000000,64000500.000000
143704824.000000,64000499.000000
143643620.000000,63993851.000000
143509376.000000,63943526.000000
143394654.000000,63857546.000000
143392112.000000,63854154.000000
143319488.000000,63805629.000000
143224200.000000,63786675.000000
143128912.000000,63805629.000000
143048130.000000,63859605.000000
142994154.000000,63940387.000000
142975200.000000,64035675.000000
142975200.000000,64288493.000000
142994154.000000,64383781.000000
143048130.000000,64464563.000000
143579317.000000,64995750.000000
143602621.000000,65015777.000000
143605870.000000,65018806.000000
143617524.000000,65027383.000000
143626889.000000,65038407.000000
143626894.000000,65038411.000000
143648106.000000,65063379.000000
143653988.000000,65069759.000000
143653952.000000,65069791.000000
143658764.000000,65075197.000000
143663870.000000,65080303.000000
143679980.000000,65100665.000000
143685463.000000,65107352.000000
143730832.000000,65160755.000000
143736857.000000,65172555.000000
143745081.000000,65182949.000000
143751208.000000,65196058.000000
143751212.000000,65196065.000000
143774749.000000,65246425.000000
143778565.000000,65254232.000000
143784497.000000,65265850.000000
143810419.000000,65316616.000000
143813569.000000,65329490.000000
143819179.000000,65341493.000000
143822125.000000,65355658.000000
143822126.000000,65355660.000000
143833445.000000,65410078.000000
143835356.000000,65418525.000000
143852015.000000,65486606.000000
143852700.000000,65497648.000000
143852700.000000,65501526.000000
143852741.000000,65502845.000000
143854818.000000,65512831.000000
143854427.000000,65527291.000000
143854427.000000,65527294.000000
143852791.000000,65587737.000000
143852700.000000,65594473.000000
143852700.000000,65600500.000000
143871654.000000,65695788.000000
143925630.000000,65776570.000000
144006412.000000,65830546.000000
144101700.000000,65849500.000000
144696437.000000,65849500.000000
144727109.000000,65847180.000000
144731535.000000,65847026.000000
144745830.000000,65844851.000000
144791977.000000,65848605.000000
144792904.000000,65848680.000000
144801584.000000,65849033.000000
144801581.000000,65849081.000000
144808791.000000,65849500.000000
144816022.000000,65849500.000000
144841843.000000,65852510.000000
144850420.000000,65853358.000000
144920259.000000,65859039.000000
144932863.000000,65863122.000000
144946028.000000,65864657.000000
144959622.000000,65869591.000000
144959629.000000,65869593.000000
145011897.000000,65888565.000000
145020114.000000,65891387.000000
145030590.000000,65894781.000000
145086746.000000,65912973.000000
145098075.000000,65919848.000000
145110531.000000,65924369.000000
145169141.000000,65962796.000000
145176461.000000,65967414.000000
145226884.000000,65998011.000000
145226887.000000,65998013.000000
145236359.000000,66003761.000000
145244652.000000,66011084.000000
145247363.000000,66013795.000000
145248367.000000,66014738.000000
145256885.000000,66020323.000000
145266832.000000,66030823.000000
145266833.000000,66030824.000000
145308398.000000,66074701.000000
145313095.000000,66079527.000000
145879313.000000,66645746.000000
145902627.000000,66665781.000000
145905877.000000,66668812.000000
145917524.000000,66677383.000000
145944629.000000,66709287.000000
146020766.000000,66769634.000000
146114204.000000,66796251.000000
146212782.000000,66784409.000000
146361472.000000,66735090.000000
146378334.000000,66733362.000000
146458515.000000,66725147.000000
146458523.000000,66725147.000000
146464834.000000,66724500.000000
147189566.000000,66724500.000000
147195962.000000,66725164.000000
147195969.000000,66725164.000000
147280671.000000,66733953.000000
147280673.000000,66733953.000000
147294219.000000,66735359.000000
147307132.000000,66739667.000000
147307136.000000,66739668.000000
147441241.000000,66784409.000000
147460229.000000,66790744.000000
147472526.000000,66798354.000000
147472529.000000,66798355.000000
147511635.000000,66822555.000000
147609045.000000,66882834.000000
147732684.000000,67006689.000000
147740274.000000,67019003.000000
147740276.000000,67019005.000000
147760535.000000,67051872.000000
147824514.000000,67155666.000000
147824526.000000,67155702.000000
147876906.000000,67227141.000000
147959964.000000,67277544.000000
148055988.000000,67292325.000000
148150359.000000,67269235.000000
148221201.000000,67219632.000000
150317950.000000,65122883.000000
150337977.000000,65099579.000000
150341006.000000,65096330.000000
150349583.000000,65084676.000000
150360607.000000,65075311.000000
150360611.000000,65075306.000000
150385579.000000,65054094.000000
150391959.000000,65048212.000000
150391991.000000,65048248.000000
150397397.000000,65043436.000000
150402503.000000,65038330.000000
150422865.000000,65022220.000000
150429561.000000,65016730.000000
150482955.000000,64971368.000000
150494755.000000,64965343.000000
150505149.000000,64957119.000000
150518258.000000,64950992.000000
150518265.000000,64950988.000000
150568625.000000,64927451.000000
150576432.000000,64923635.000000
150625925.000000,64898363.000000
150625928.000000,64898362.000000
150638816.000000,64891781.000000
150651690.000000,64888631.000000
150663693.000000,64883021.000000
150677858.000000,64880075.000000
150677860.000000,64880074.000000
150732278.000000,64868755.000000
150740725.000000,64866844.000000
150808806.000000,64850185.000000
150819848.000000,64849500.000000
150823726.000000,64849500.000000
150825045.000000,64849459.000000
150835031.000000,64847382.000000
150849492.000000,64847773.000000
150849495.000000,64847773.000000
150908323.000000,64849365.000000
151004089.000000,64832995.000000
151086301.000000,64781223.000000
151124119.000000,64735712.000000
151159295.000000,64681339.000000
151325354.000000,64498842.000000
151518990.000000,64345918.000000
151563737.000000,64321216.000000
151726057.000000,64231611.000000
151726056.000000,64231611.000000
151735002.000000,64226673.000000
151744628.000000,64223264.000000
151744633.000000,64223262.000000
151957960.000000,64147719.000000
151957962.000000,64147718.000000
151967590.000000,64144309.000000
152210506.000000,64101039.000000
152220726.000000,64100914.000000
152220728.000000,64100914.000000
152361021.000000,64099200.000000
152457228.000000,64098025.000000
152646374.000000,64126968.000000
152691034.000000,64133802.000000
152691035.000000,64133802.000000
152701130.000000,64135347.000000
152710841.000000,64138521.000000
152925950.000000,64208829.000000
152925953.000000,64208830.000000
152935660.000000,64212003.000000
153154521.000000,64325935.000000
153351836.000000,64474083.000000
153358888.000000,64481463.000000
153358893.000000,64481467.000000
153382720.000000,64506401.000000
153522304.000000,64652468.000000
153528066.000000,64660915.000000
153655532.000000,64847773.000000
153661349.000000,64856300.000000
153765235.000000,65080104.000000
153767962.000000,65089939.000000
153767964.000000,65089943.000000
153827251.000000,65303725.000000
153831174.000000,65317871.000000
153835496.000000,65358311.000000
153853555.000000,65527294.000000
153857394.000000,65563214.000000
153843190.000000,65809545.000000
153840942.000000,65819520.000000
153832872.000000,65855331.000000
153830414.000000,65952455.000000
153865310.000000,66043126.000000
153899710.000000,66086141.000000
154526630.000000,66713062.000000
154607412.000000,66767039.000000
154702700.000000,66785993.000000
154797988.000000,66767039.000000
154878769.000000,66713063.000000
154932746.000000,66632281.000000
154951700.000000,66536993.000000
154951700.000000,63814007.000000
154932746.000000,63718719.000000
154878770.000000,63637937.000000
152888782.000000,61647950.000000
152808000.000000,61593974.000000
152712712.000000,61575020.000000
147701700.000000,61575020.000000
Z" /> 
<path style="fill:#FFFFFF; fill-opacity:1.0; 
stroke:#FFFFFF; stroke-width:1.000000; stroke-opacity:1; 
stroke-linecap:round; stroke-linejoin:round;fill-rule:evenodd;"
d="M 151001091.000000,66589047.000000
150920710.000000,66642858.000000
150211638.000000,67351931.000000
150157662.000000,67432712.000000
150138708.000000,67528000.000000
150157662.000000,67623288.000000
150211639.000000,67704070.000000
150292420.000000,67758046.000000
150387708.000000,67777000.000000
150652066.000000,67777000.000000
150658462.000000,67777664.000000
150658469.000000,67777664.000000
150743171.000000,67786453.000000
150743173.000000,67786453.000000
150756719.000000,67787859.000000
150769632.000000,67792167.000000
150769636.000000,67792168.000000
150909010.000000,67838667.000000
150922729.000000,67843244.000000
150935026.000000,67850854.000000
150935029.000000,67850855.000000
151018781.000000,67902683.000000
151071545.000000,67935334.000000
151081764.000000,67945570.000000
151081763.000000,67945570.000000
151102573.000000,67966416.000000
151183308.000000,68020463.000000
151278796.000000,68039500.000000
153016437.000000,68039500.000000
153047109.000000,68037180.000000
153051535.000000,68037026.000000
153065830.000000,68034851.000000
153108661.000000,68038335.000000
153205171.000000,68027169.000000
153290063.000000,67979920.000000
153350411.000000,67903781.000000
153377028.000000,67810343.000000
153365862.000000,67713832.000000
153318613.000000,67628940.000000
153304918.000000,67614085.000000
152837311.000000,67146478.000000
152756529.000000,67092502.000000
152661241.000000,67073548.000000
152611596.000000,67078547.000000
152530474.000000,67095052.000000
152441293.000000,67098322.000000
152294113.000000,67103719.000000
152294107.000000,67103719.000000
152283900.000000,67104093.000000
152273769.000000,67102795.000000
152273764.000000,67102795.000000
152138530.000000,67085471.000000
152039159.000000,67072741.000000
151802826.000000,67001838.000000
151581246.000000,66893287.000000
151496655.000000,66832949.000000
151388688.000000,66755937.000000
151388684.000000,66755934.000000
151380371.000000,66750004.000000
151373140.000000,66742798.000000
151373135.000000,66742794.000000
151289112.000000,66659063.000000
151272541.000000,66642550.000000
151191667.000000,66588715.000000
151096346.000000,66569927.000000
Z" /> 
<path style="fill:#FFFFFF; fill-opacity:1.0; 
stroke:#FFFFFF; stroke-width:1.000000; stroke-opacity:1; 
stroke-linecap:round; stroke-linejoin:round;fill-rule:evenodd;"
d="M 138779912.000000,71794598.000000
138733262.000000,71822725.000000
138732030.000000,71820965.000000
138723664.000000,71826823.000000
138715801.000000,71833351.000000
138502767.000000,71957838.000000
138379847.000000,72004776.000000
138345523.000000,72017883.000000
138263266.000000,72069582.000000
138207055.000000,72148825.000000
138185447.000000,72243547.000000
138201733.000000,72339327.000000
138253432.000000,72421584.000000
138332675.000000,72477795.000000
138434350.000000,72499500.000000
138614566.000000,72499500.000000
138620962.000000,72500164.000000
138620969.000000,72500164.000000
138705671.000000,72508953.000000
138705673.000000,72508953.000000
138719219.000000,72510359.000000
138732135.000000,72514668.000000
138732144.000000,72514670.000000
138809500.000000,72540478.000000
138905889.000000,72552655.000000
138999601.000000,72527019.000000
139076368.000000,72467472.000000
139124504.000000,72383080.000000
139136681.000000,72286691.000000
139134771.000000,72273230.000000
139134790.000000,72273228.000000
139124847.000000,72176185.000000
139124847.000000,72176177.000000
139124200.000000,72169866.000000
139124200.000000,72024644.000000
139105246.000000,71929356.000000
139051270.000000,71848574.000000
138970488.000000,71794598.000000
138875200.000000,71775644.000000
Z" /> 
<path style="fill:#FFFFFF; fill-opacity:1.0; 
stroke:#FFFFFF; stroke-width:1.000000; stroke-opacity:1; 
stroke-linecap:round; stroke-linejoin:round;fill-rule:evenodd;"
d="M 151056011.000000,71643776.000000
150975324.000000,71697893.000000
150921488.000000,71778769.000000
150902700.000000,71873656.000000
150902700.000000,72936993.000000
150921654.000000,73032281.000000
150975630.000000,73113063.000000
151056412.000000,73167039.000000
151151700.000000,73185993.000000
151246988.000000,73167039.000000
151327770.000000,73113063.000000
151997407.000000,72443426.000000
152051383.000000,72362644.000000
152070337.000000,72267356.000000
152051383.000000,72172068.000000
151997407.000000,72091286.000000
151916625.000000,72037310.000000
151892889.000000,72028858.000000
151878843.000000,72024644.000000
151802826.000000,72001838.000000
151581246.000000,71893287.000000
151442889.000000,71794598.000000
151388688.000000,71755937.000000
151388684.000000,71755934.000000
151380371.000000,71750004.000000
151373140.000000,71742798.000000
151373135.000000,71742794.000000
151327463.000000,71697280.000000
151246587.000000,71643444.000000
151151266.000000,71624656.000000
Z" /> 
<path style="fill:#FFFFFF; fill-opacity:1.0; 
stroke:#FFFFFF; stroke-width:1.000000; stroke-opacity:1; 
stroke-linecap:round; stroke-linejoin:round;fill-rule:evenodd;"
d="M 136619751.000000,71752913.000000
136548986.000000,71819481.000000
136509082.000000,71908064.000000
136502700.000000,71964077.000000
136502700.000000,73836993.000000
136521654.000000,73932281.000000
136575630.000000,74013063.000000
136656412.000000,74067039.000000
136751700.000000,74085993.000000
136846988.000000,74067039.000000
136927770.000000,74013063.000000
137216270.000000,73724563.000000
137270246.000000,73643781.000000
137289200.000000,73548493.000000
137289200.000000,73200134.000000
137292948.000000,73164007.000000
137298653.000000,73109029.000000
137298653.000000,73109027.000000
137300059.000000,73095481.000000
137304964.000000,73080777.000000
137350867.000000,72943190.000000
137355444.000000,72929471.000000
137372116.000000,72902528.000000
137428098.000000,72812063.000000
137447534.000000,72780655.000000
137571389.000000,72657016.000000
137583703.000000,72649426.000000
137583705.000000,72649424.000000
137708048.000000,72572779.000000
137708047.000000,72572779.000000
137720366.000000,72565186.000000
137733755.000000,72560745.000000
137811930.000000,72503426.000000
137862332.000000,72420368.000000
137877113.000000,72324344.000000
137854022.000000,72229973.000000
137796574.000000,72151622.000000
137713516.000000,72101220.000000
137659990.000000,72088220.000000
137598050.000000,72080285.000000
137539159.000000,72072741.000000
137302826.000000,72001838.000000
137081246.000000,71893287.000000
136896295.000000,71761363.000000
136807713.000000,71721459.000000
136710604.000000,71718492.000000
Z" /> 
<path style="fill:#FFFFFF; fill-opacity:1.0; 
stroke:#FFFFFF; stroke-width:1.000000; stroke-opacity:1; 
stroke-linecap:round; stroke-linejoin:round;fill-rule:evenodd;"
d="M 148607412.000000,70187742.000000
148589469.000000,70196023.000000
148565584.000000,70208219.000000
148552714.000000,70211368.000000
148540707.000000,70216980.000000
148526542.000000,70219926.000000
148526540.000000,70219927.000000
148497706.000000,70225924.000000
148472114.000000,70231248.000000
148463649.000000,70233163.000000
148406376.000000,70247178.000000
148406362.000000,70247180.000000
148395594.000000,70249815.000000
148384552.000000,70250500.000000
148380675.000000,70250500.000000
148379356.000000,70250541.000000
148369369.000000,70252618.000000
148354912.000000,70252227.000000
148354910.000000,70252227.000000
148294463.000000,70250591.000000
148287727.000000,70250500.000000
145433577.000000,70250500.000000
145418159.000000,70250978.000000
145375783.000000,70253607.000000
145375782.000000,70253607.000000
145361338.000000,70254503.000000
145347074.000000,70252052.000000
145332637.000000,70251270.000000
145332606.000000,70251847.000000
145316807.000000,70250500.000000
144416207.000000,70250500.000000
144320919.000000,70269454.000000
144240137.000000,70323430.000000
143048130.000000,71515438.000000
142994154.000000,71596220.000000
142975200.000000,71691508.000000
142975200.000000,72164325.000000
142994154.000000,72259613.000000
143048130.000000,72340395.000000
143128912.000000,72394371.000000
143224200.000000,72413325.000000
143319488.000000,72394371.000000
143392112.000000,72345846.000000
143394654.000000,72342454.000000
143509376.000000,72256474.000000
143555912.000000,72239029.000000
143629004.000000,72211628.000000
143629005.000000,72211628.000000
143643620.000000,72206149.000000
143704823.000000,72199500.000000
145351099.000000,72199500.000000
146999576.000000,72199501.000000
147060780.000000,72206149.000000
147195024.000000,72256474.000000
147309746.000000,72342454.000000
147395726.000000,72457176.000000
147401953.000000,72473787.000000
147436216.000000,72565186.000000
147446051.000000,72591420.000000
147452700.000000,72652623.000000
147452699.000000,73651633.000000
147452699.000000,74086994.000000
147471653.000000,74182282.000000
147525629.000000,74263063.000000
147606411.000000,74317040.000000
147701699.000000,74335994.000000
147796987.000000,74317040.000000
147877769.000000,74263064.000000
149328770.000000,72812063.000000
149382746.000000,72731281.000000
149401700.000000,72635993.000000
149401700.000000,71712885.000000
149382746.000000,71617597.000000
149328770.000000,71536815.000000
149283729.000000,71501148.000000
149245152.000000,71477276.000000
149245150.000000,71477274.000000
149232855.000000,71469666.000000
149109216.000000,71345811.000000
149017386.000000,71196834.000000
148962290.000000,71030728.000000
148951700.000000,70927366.000000
148951700.000000,70417788.000000
148932746.000000,70322500.000000
148878770.000000,70241718.000000
148797988.000000,70187742.000000
148702700.000000,70168788.000000
Z" /> 
<path style="fill:#FFFFFF; fill-opacity:1.0; 
stroke:#FFFFFF; stroke-width:1.000000; stroke-opacity:1; 
stroke-linecap:round; stroke-linejoin:round;fill-rule:evenodd;"
d="M 142907413.000000,72523007.000000
142826632.000000,72576983.000000
142819704.000000,72584759.000000
142816866.000000,72589345.000000
142693011.000000,72712984.000000
142680697.000000,72720574.000000
142680695.000000,72720576.000000
142581550.000000,72781689.000000
142544034.000000,72804814.000000
142469543.000000,72829522.000000
142390836.000000,72855629.000000
142390832.000000,72855630.000000
142377928.000000,72859910.000000
142364400.000000,72861296.000000
142280885.000000,72869853.000000
142280877.000000,72869853.000000
142274566.000000,72870500.000000
141649834.000000,72870500.000000
141643438.000000,72869836.000000
141643431.000000,72869836.000000
141558729.000000,72861047.000000
141558727.000000,72861047.000000
141545181.000000,72859641.000000
141532265.000000,72855332.000000
141532256.000000,72855330.000000
141454900.000000,72829522.000000
141358511.000000,72817345.000000
141264799.000000,72842981.000000
141188032.000000,72902528.000000
141139896.000000,72986920.000000
141127719.000000,73083309.000000
141129629.000000,73096770.000000
141129610.000000,73096772.000000
141138751.000000,73185993.000000
141140200.000000,73200134.000000
141140200.000000,74199866.000000
141139536.000000,74206262.000000
141139536.000000,74206269.000000
141130747.000000,74290971.000000
141129341.000000,74304519.000000
141125033.000000,74317432.000000
141125032.000000,74317436.000000
141097669.000000,74399452.000000
141073956.000000,74470529.000000
141066346.000000,74482826.000000
141066345.000000,74482829.000000
141016993.000000,74562580.000000
140981866.000000,74619345.000000
140858011.000000,74742984.000000
140845697.000000,74750574.000000
140845695.000000,74750576.000000
140778847.000000,74791781.000000
140709034.000000,74834814.000000
140641788.000000,74857119.000000
140555836.000000,74885629.000000
140555832.000000,74885630.000000
140542928.000000,74889910.000000
140529400.000000,74891296.000000
140445885.000000,74899853.000000
140445877.000000,74899853.000000
140439566.000000,74900500.000000
139814834.000000,74900500.000000
139808438.000000,74899836.000000
139808431.000000,74899836.000000
139723729.000000,74891047.000000
139723727.000000,74891047.000000
139710181.000000,74889641.000000
139697268.000000,74885333.000000
139697264.000000,74885332.000000
139557890.000000,74838833.000000
139544171.000000,74834256.000000
139531874.000000,74826646.000000
139531871.000000,74826645.000000
139434779.000000,74766562.000000
139395355.000000,74742166.000000
139385137.000000,74731930.000000
139373798.000000,74722943.000000
139372096.000000,74725090.000000
139310092.000000,74683581.000000
139214821.000000,74664543.000000
139119516.000000,74683413.000000
139056107.000000,74725701.000000
139054603.000000,74723797.000000
139043250.000000,74732763.000000
139033011.000000,74742984.000000
139020697.000000,74750574.000000
139020695.000000,74750576.000000
138953847.000000,74791781.000000
138884034.000000,74834814.000000
138816788.000000,74857119.000000
138730836.000000,74885629.000000
138730832.000000,74885630.000000
138717928.000000,74889910.000000
138704400.000000,74891296.000000
138620885.000000,74899853.000000
138620877.000000,74899853.000000
138614566.000000,74900500.000000
138266208.000000,74900500.000000
138170920.000000,74919454.000000
138090138.000000,74973430.000000
138025630.000000,75037938.000000
137971654.000000,75118720.000000
137952700.000000,75214008.000000
137952700.000000,75600500.000000
137971654.000000,75695788.000000
138025630.000000,75776570.000000
138106412.000000,75830546.000000
138201700.000000,75849500.000000
138570870.000000,75849500.000000
138644708.000000,75838300.000000
138670307.000000,75830351.000000
138670312.000000,75830350.000000
138680376.000000,75827225.000000
138851693.000000,75804518.000000
138905539.000000,75797381.000000
138905540.000000,75797381.000000
138915989.000000,75795996.000000
138926516.000000,75796391.000000
138926520.000000,75796391.000000
139034742.000000,75800455.000000
139153495.000000,75804913.000000
139312616.000000,75838300.000000
139340707.000000,75844194.000000
139391839.000000,75849501.000000
139879576.000000,75849501.000000
139940780.000000,75856149.000000
140075024.000000,75906474.000000
140189746.000000,75992454.000000
140200387.000000,76006652.000000
140259030.000000,76084898.000000
140331344.000000,76149781.000000
140422983.000000,76182051.000000
140519996.000000,76176797.000000
140606916.000000,76135338.000000
140674709.000000,76084898.000000
140781530.000000,76005421.000000
140993393.000000,75897705.000000
141132655.000000,75854463.000000
141210301.000000,75830353.000000
141210305.000000,75830352.000000
141220376.000000,75827225.000000
141409910.000000,75802103.000000
141445539.000000,75797381.000000
141445540.000000,75797381.000000
141455989.000000,75795996.000000
141466516.000000,75796391.000000
141466520.000000,75796391.000000
141564991.000000,75800088.000000
141693495.000000,75804913.000000
141703813.000000,75807078.000000
141714281.000000,75808363.000000
141714620.000000,75805602.000000
141792990.000000,75806425.000000
141883135.000000,75770191.000000
141923050.000000,75737783.000000
142637950.000000,75022883.000000
142657977.000000,74999579.000000
142661006.000000,74996330.000000
142669583.000000,74984676.000000
142680607.000000,74975311.000000
142680611.000000,74975306.000000
142705579.000000,74954094.000000
142711959.000000,74948212.000000
142711991.000000,74948248.000000
142717397.000000,74943436.000000
142722503.000000,74938330.000000
142742865.000000,74922220.000000
142749561.000000,74916730.000000
142769426.000000,74899853.000000
142802955.000000,74871368.000000
142814755.000000,74865343.000000
142825149.000000,74857119.000000
142838258.000000,74850992.000000
142838265.000000,74850988.000000
142888625.000000,74827451.000000
142896432.000000,74823635.000000
142945925.000000,74798363.000000
142945928.000000,74798362.000000
142958816.000000,74791781.000000
142971690.000000,74788631.000000
142983693.000000,74783021.000000
142997858.000000,74780075.000000
142997860.000000,74780074.000000
143052278.000000,74768755.000000
143060732.000000,74766843.000000
143061882.000000,74766561.000000
143149933.000000,74725504.000000
143215571.000000,74653875.000000
143248801.000000,74562580.000000
143251700.000000,74524697.000000
143251701.000000,72753053.000000
143232747.000000,72657765.000000
143178771.000000,72576984.000000
143097989.000000,72523007.000000
143002701.000000,72504053.000000
Z" /> 
<path style="fill:#FFFFFF; fill-opacity:1.0; 
stroke:#FFFFFF; stroke-width:1.000000; stroke-opacity:1; 
stroke-linecap:round; stroke-linejoin:round;fill-rule:evenodd;"
d="M 154607412.000000,73182961.000000
154526631.000000,73236937.000000
152505630.000000,75257938.000000
152451654.000000,75338720.000000
152432700.000000,75434008.000000
152432700.000000,75883328.000000
152451654.000000,75978616.000000
152505630.000000,76059398.000000
152518503.000000,76071391.000000
152689864.000000,76220090.000000
152840562.000000,76403880.000000
152958139.000000,76610433.000000
153039234.000000,76833844.000000
153081526.000000,77067725.000000
153082700.000000,77092619.000000
153082700.000000,78956992.000000
153101654.000000,79052280.000000
153155630.000000,79133062.000000
153236412.000000,79187038.000000
153331700.000000,79205992.000000
153426988.000000,79187038.000000
153507770.000000,79133062.000000
154878770.000000,77762063.000000
154932746.000000,77681281.000000
154951700.000000,77585993.000000
154951700.000000,73413007.000000
154932746.000000,73317719.000000
154878770.000000,73236937.000000
154797988.000000,73182961.000000
154702700.000000,73164007.000000
Z" /> 
<path style="fill:#FFFFFF; fill-opacity:1.0; 
stroke:#FFFFFF; stroke-width:1.000000; stroke-opacity:1; 
stroke-linecap:round; stroke-linejoin:round;fill-rule:evenodd;"
d="M 155457412.000000,79332961.000000
155376631.000000,79386937.000000
153589138.000000,81174430.000000
153535162.000000,81255212.000000
153516208.000000,81350500.000000
153535162.000000,81445788.000000
153589138.000000,81526570.000000
153669920.000000,81580546.000000
153765208.000000,81599500.000000
155552700.000000,81599500.000000
155647988.000000,81580546.000000
155728770.000000,81526570.000000
155782746.000000,81445788.000000
155801700.000000,81350500.000000
155801700.000000,79563007.000000
155782746.000000,79467719.000000
155728770.000000,79386937.000000
155647988.000000,79332961.000000
155552700.000000,79314007.000000
Z" /> 
<path style="fill:#FFFFFF; fill-opacity:1.0; 
stroke:#FFFFFF; stroke-width:1.000000; stroke-opacity:1; 
stroke-linecap:round; stroke-linejoin:round;fill-rule:evenodd;"
d="M 145279047.000000,80237570.000000
145193344.000000,80283331.000000
145160383.000000,80316612.000000
145157609.000000,80320732.000000
145150332.000000,80328360.000000
145150329.000000,80328364.000000
145037919.000000,80446200.000000
144993555.000000,80492705.000000
144985096.000000,80498999.000000
144985090.000000,80499004.000000
144915535.000000,80550754.000000
144850400.000000,80622840.000000
144817809.000000,80714366.000000
144815989.000000,80730340.000000
144813520.000000,80760695.000000
144813167.000000,80769386.000000
144813119.000000,80769383.000000
144812700.000000,80776596.000000
144812700.000000,80783822.000000
144811864.000000,80790996.000000
144811863.000000,80791006.000000
144809692.000000,80809629.000000
144808837.000000,80818275.000000
144807591.000000,80833587.000000
144803161.000000,80888059.000000
144799078.000000,80900663.000000
144797543.000000,80913828.000000
144792609.000000,80927422.000000
144792607.000000,80927429.000000
144773635.000000,80979697.000000
144770813.000000,80987914.000000
144749227.000000,81054546.000000
144742352.000000,81065875.000000
144737831.000000,81078331.000000
144699404.000000,81136942.000000
144694787.000000,81144261.000000
144658439.000000,81204160.000000
144656545.000000,81206304.000000
144616921.000000,81290885.000000
144612510.000000,81387940.000000
144645576.000000,81479295.000000
144711085.000000,81551042.000000
144799064.000000,81592258.000000
144858679.000000,81599500.000000
145939193.000000,81599500.000000
146034481.000000,81580546.000000
146115263.000000,81526570.000000
146169239.000000,81445788.000000
146188193.000000,81350500.000000
146169239.000000,81255212.000000
146115265.000000,81174432.000000
146025076.000000,81084244.000000
146001785.000000,81064229.000000
145998529.000000,81061193.000000
145986876.000000,81052617.000000
145956307.000000,81016635.000000
145950412.000000,81010240.000000
145950447.000000,81010209.000000
145945635.000000,81004803.000000
145940529.000000,80999697.000000
145927929.000000,80983771.000000
145924419.000000,80979335.000000
145918906.000000,80972611.000000
145882934.000000,80930270.000000
145882932.000000,80930268.000000
145873568.000000,80919245.000000
145867543.000000,80907446.000000
145859319.000000,80897051.000000
145829649.000000,80833568.000000
145825843.000000,80825782.000000
145822010.000000,80818275.000000
145793981.000000,80763384.000000
145790832.000000,80750514.000000
145785220.000000,80738507.000000
145780198.000000,80714366.000000
145770955.000000,80669925.000000
145769037.000000,80661449.000000
145755022.000000,80604174.000000
145755021.000000,80604166.000000
145752385.000000,80593394.000000
145752328.000000,80592468.000000
145720836.000000,80505469.000000
145670929.000000,80446200.000000
145602499.000000,80386820.000000
145602498.000000,80386819.000000
145594536.000000,80379910.000000
145543773.000000,80318000.000000
145468698.000000,80256333.000000
145375738.000000,80228090.000000
Z" /> 
</g>
</g>
</g>
<g style="fill:#000000; fill-opacity:1.0; 
stroke:#000000; stroke-width:1.000000; stroke-opacity:1; 
stroke-linecap:round; stroke-linejoin:round;">
<circle cx="138982200.000000" cy="77200000.000000" r="500000.000000" /> 
</g>
<g style="fill:#000000; fill-opacity:1.0; 
stroke:#000000; stroke-width:21200.000000; stroke-opacity:1; 
stroke-linecap:round; stroke-linejoin:round;">
</g>
<g style="fill:#000000; fill-opacity:1.0; 
stroke:#000000; stroke-width:1.000000; stroke-opacity:1; 
stroke-linecap:round; stroke-linejoin:round;">
<circle cx="141522200.000000" cy="77200000.000000" r="500000.000000" /> 
</g>
<g style="fill:#000000; fill-opacity:1.0; 
stroke:#000000; stroke-width:21200.000000; stroke-opacity:1; 
stroke-linecap:round; stroke-linejoin:round;">
</g>
<g style="fill:#000000; fill-opacity:1.0; 
stroke:#000000; stroke-width:1.000000; stroke-opacity:1; 
stroke-linecap:round; stroke-linejoin:round;">
<circle cx="144062200.000000" cy="77200000.000000" r="500000.000000" /> 
</g>
<g style="fill:#000000; fill-opacity:1.0; 
stroke:#000000; stroke-width:21200.000000; stroke-opacity:1; 
stroke-linecap:round; stroke-linejoin:round;">
</g>
<g style="fill:#000000; fill-opacity:1.0; 
stroke:#000000; stroke-width:1.000000; stroke-opacity:1; 
stroke-linecap:round; stroke-linejoin:round;">
<circle cx="146602200.000000" cy="77200000.000000" r="500000.000000" /> 
</g>
<g style="fill:#000000; fill-opacity:1.0; 
stroke:#000000; stroke-width:21200.000000; stroke-opacity:1; 
stroke-linecap:round; stroke-linejoin:round;">
</g>
<g style="fill:#000000; fill-opacity:1.0; 
stroke:#000000; stroke-width:1.000000; stroke-opacity:1; 
stroke-linecap:round; stroke-linejoin:round;">
<circle cx="149142200.000000" cy="77200000.000000" r="500000.000000" /> 
</g>
<g style="fill:#000000; fill-opacity:1.0; 
stroke:#000000; stroke-width:21200.000000; stroke-opacity:1; 
stroke-linecap:round; stroke-linejoin:round;">
</g>
<g style="fill:#000000; fill-opacity:1.0; 
stroke:#000000; stroke-width:1.000000; stroke-opacity:1; 
stroke-linecap:round; stroke-linejoin:round;">
<circle cx="151682200.000000" cy="77200000.000000" r="500000.000000" /> 
</g>
<g style="fill:#000000; fill-opacity:1.0; 
stroke:#000000; stroke-width:21200.000000; stroke-opacity:1; 
stroke-linecap:round; stroke-linejoin:round;">
</g>
<g style="fill:#000000; fill-opacity:1.0; 
stroke:#000000; stroke-width:1.000000; stroke-opacity:1; 
stroke-linecap:round; stroke-linejoin:round;">
<circle cx="137852200.000000" cy="65600000.000000" r="500000.000000" /> 
</g>
<g style="fill:#000000; fill-opacity:1.0; 
stroke:#000000; stroke-width:21200.000000; stroke-opacity:1; 
stroke-linecap:round; stroke-linejoin:round;">
</g>
<g style="fill:#000000; fill-opacity:1.0; 
stroke:#000000; stroke-width:1.000000; stroke-opacity:1; 
stroke-linecap:round; stroke-linejoin:round;">
<circle cx="137852200.000000" cy="70600000.000000" r="500000.000000" /> 
</g>
<g style="fill:#000000; fill-opacity:1.0; 
stroke:#000000; stroke-width:21200.000000; stroke-opacity:1; 
stroke-linecap:round; stroke-linejoin:round;">
</g>
<g style="fill:#000000; fill-opacity:1.0; 
stroke:#000000; stroke-width:1.000000; stroke-opacity:1; 
stroke-linecap:round; stroke-linejoin:round;">
<circle cx="137852200.000000" cy="68100000.000000" r="500000.000000" /> 
</g>
<g style="fill:#000000; fill-opacity:1.0; 
stroke:#000000; stroke-width:21200.000000; stroke-opacity:1; 
stroke-linecap:round; stroke-linejoin:round;">
</g>
<g style="fill:#000000; fill-opacity:1.0; 
stroke:#000000; stroke-width:1500000.000000; stroke-opacity:1; 
stroke-linecap:round; stroke-linejoin:round;">
</g>
<g style="fill:#000000; fill-opacity:0.0; 
stroke:#000000; stroke-width:1500000.000000; stroke-opacity:1; 
stroke-linecap:round; stroke-linejoin:round;">
<path d="M144702200 62500000
L146002200 62500000
" />
<path d="M144702200 73700000
L146002200 73700000
" />
</g>
<g style="fill:#000000; fill-opacity:1.0; 
stroke:#000000; stroke-width:1.000000; stroke-opacity:1; 
stroke-linecap:round; stroke-linejoin:round;">
<circle cx="152352200.000000" cy="70600000.000000" r="500000.000000" /> 
</g>
<g style="fill:#000000; fill-opacity:1.0; 
stroke:#000000; stroke-width:21200.000000; stroke-opacity:1; 
stroke-linecap:round; stroke-linejoin:round;">
</g>
<g style="fill:#000000; fill-opacity:1.0; 
stroke:#000000; stroke-width:1.000000; stroke-opacity:1; 
stroke-linecap:round; stroke-linejoin:round;">
<circle cx="152352200.000000" cy="65600000.000000" r="500000.000000" /> 
</g>
<g style="fill:#000000; fill-opacity:1.0; 
stroke:#000000; stroke-width:21200.000000; stroke-opacity:1; 
stroke-linecap:round; stroke-linejoin:round;">
</g>
<g style="fill:#FFFFFF; fill-opacity:1.0; 
stroke:#FFFFFF; stroke-width:21200.000000; stroke-opacity:1; 
stroke-linecap:round; stroke-linejoin:round;">
</g> 
</svg>
