<?xml version="1.0" standalone="no"?>
 <!DOCTYPE svg PUBLIC "-//W3C//DTD SVG 1.1//EN" 
 "http://www.w3.org/Graphics/SVG/1.1/DTD/svg11.dtd"> 
<svg
  xmlns:svg="http://www.w3.org/2000/svg"
  xmlns="http://www.w3.org/2000/svg"
  xmlns:xlink="http://www.w3.org/1999/xlink"
  version="1.1"
  width="29.700220cm" height="21.000720cm" viewBox="0 0 297002200 210007200">
<title>SVG Picture created as hot_fen_enc_board-F_Mask.svg date 2024/04/29 22:40:53 </title>
  <desc>Picture generated by PCBNEW </desc>
<g style="fill:#000000; fill-opacity:1.000000;stroke:#000000; stroke-opacity:1.000000;
stroke-linecap:round; stroke-linejoin:round;"
 transform="translate(0 0) scale(1 1)">
</g>
<g style="fill:#000000; fill-opacity:0.0; 
stroke:#000000; stroke-width:0.000000; stroke-opacity:1; 
stroke-linecap:round; stroke-linejoin:round;">
<g >
</g>
<g style="fill:#000000; fill-opacity:0.0; 
stroke:#000000; stroke-width:1.000000; stroke-opacity:1; 
stroke-linecap:round; stroke-linejoin:round;">
</g>
<g style="fill:#000000; fill-opacity:1.0; 
stroke:#000000; stroke-width:1.000000; stroke-opacity:1; 
stroke-linecap:round; stroke-linejoin:round;">
<path style="fill:#000000; fill-opacity:1.0; 
stroke:#000000; stroke-width:1.000000; stroke-opacity:1; 
stroke-linecap:round; stroke-linejoin:round;fill-rule:evenodd;"
d="M 139662200.000000,70045000.000000
139681230.000000,70140671.000000
139735423.000000,70221777.000000
139816529.000000,70275970.000000
139912200.000000,70295000.000000
140412200.000000,70295000.000000
140507871.000000,70275970.000000
140588977.000000,70221777.000000
140643170.000000,70140671.000000
140662200.000000,70045000.000000
140662200.000000,69095000.000000
140643170.000000,68999329.000000
140588977.000000,68918223.000000
140507871.000000,68864030.000000
140412200.000000,68845000.000000
139912200.000000,68845000.000000
139816529.000000,68864030.000000
139735423.000000,68918223.000000
139681230.000000,68999329.000000
139662200.000000,69095000.000000
Z" /> 
<path style="fill:#000000; fill-opacity:1.0; 
stroke:#000000; stroke-width:1.000000; stroke-opacity:1; 
stroke-linecap:round; stroke-linejoin:round;fill-rule:evenodd;"
d="M 141562200.000000,70045000.000000
141581230.000000,70140671.000000
141635423.000000,70221777.000000
141716529.000000,70275970.000000
141812200.000000,70295000.000000
142312200.000000,70295000.000000
142407871.000000,70275970.000000
142488977.000000,70221777.000000
142543170.000000,70140671.000000
142562200.000000,70045000.000000
142562200.000000,69095000.000000
142543170.000000,68999329.000000
142488977.000000,68918223.000000
142407871.000000,68864030.000000
142312200.000000,68845000.000000
141812200.000000,68845000.000000
141716529.000000,68864030.000000
141635423.000000,68918223.000000
141581230.000000,68999329.000000
141562200.000000,69095000.000000
Z" /> 
</g>
<g >
</g>
<g style="fill:#000000; fill-opacity:1.0; 
stroke:#000000; stroke-width:1.000000; stroke-opacity:1; 
stroke-linecap:round; stroke-linejoin:round;">
<path style="fill:#000000; fill-opacity:1.0; 
stroke:#000000; stroke-width:1.000000; stroke-opacity:1; 
stroke-linecap:round; stroke-linejoin:round;fill-rule:evenodd;"
d="M 139624700.000000,62790000.000000
139643730.000000,62885671.000000
139697923.000000,62966777.000000
139779029.000000,63020970.000000
139874700.000000,63040000.000000
140399700.000000,63040000.000000
140495371.000000,63020970.000000
140576477.000000,62966777.000000
140630670.000000,62885671.000000
140649700.000000,62790000.000000
140649700.000000,61890000.000000
140630670.000000,61794329.000000
140576477.000000,61713223.000000
140495371.000000,61659030.000000
140399700.000000,61640000.000000
139874700.000000,61640000.000000
139779029.000000,61659030.000000
139697923.000000,61713223.000000
139643730.000000,61794329.000000
139624700.000000,61890000.000000
Z" /> 
<path style="fill:#000000; fill-opacity:1.0; 
stroke:#000000; stroke-width:1.000000; stroke-opacity:1; 
stroke-linecap:round; stroke-linejoin:round;fill-rule:evenodd;"
d="M 141449700.000000,62790000.000000
141468730.000000,62885671.000000
141522923.000000,62966777.000000
141604029.000000,63020970.000000
141699700.000000,63040000.000000
142224700.000000,63040000.000000
142320371.000000,63020970.000000
142401477.000000,62966777.000000
142455670.000000,62885671.000000
142474700.000000,62790000.000000
142474700.000000,61890000.000000
142455670.000000,61794329.000000
142401477.000000,61713223.000000
142320371.000000,61659030.000000
142224700.000000,61640000.000000
141699700.000000,61640000.000000
141604029.000000,61659030.000000
141522923.000000,61713223.000000
141468730.000000,61794329.000000
141449700.000000,61890000.000000
Z" /> 
</g>
<g >
</g>
<g style="fill:#000000; fill-opacity:1.0; 
stroke:#000000; stroke-width:1.000000; stroke-opacity:1; 
stroke-linecap:round; stroke-linejoin:round;">
<path style="fill:#000000; fill-opacity:1.0; 
stroke:#000000; stroke-width:1.000000; stroke-opacity:1; 
stroke-linecap:round; stroke-linejoin:round;fill-rule:evenodd;"
d="M 139662200.000000,67115000.000000
139681230.000000,67210671.000000
139735423.000000,67291777.000000
139816529.000000,67345970.000000
139912200.000000,67365000.000000
140412200.000000,67365000.000000
140507871.000000,67345970.000000
140588977.000000,67291777.000000
140643170.000000,67210671.000000
140662200.000000,67115000.000000
140662200.000000,66165000.000000
140643170.000000,66069329.000000
140588977.000000,65988223.000000
140507871.000000,65934030.000000
140412200.000000,65915000.000000
139912200.000000,65915000.000000
139816529.000000,65934030.000000
139735423.000000,65988223.000000
139681230.000000,66069329.000000
139662200.000000,66165000.000000
Z" /> 
<path style="fill:#000000; fill-opacity:1.0; 
stroke:#000000; stroke-width:1.000000; stroke-opacity:1; 
stroke-linecap:round; stroke-linejoin:round;fill-rule:evenodd;"
d="M 141562200.000000,67115000.000000
141581230.000000,67210671.000000
141635423.000000,67291777.000000
141716529.000000,67345970.000000
141812200.000000,67365000.000000
142312200.000000,67365000.000000
142407871.000000,67345970.000000
142488977.000000,67291777.000000
142543170.000000,67210671.000000
142562200.000000,67115000.000000
142562200.000000,66165000.000000
142543170.000000,66069329.000000
142488977.000000,65988223.000000
142407871.000000,65934030.000000
142312200.000000,65915000.000000
141812200.000000,65915000.000000
141716529.000000,65934030.000000
141635423.000000,65988223.000000
141581230.000000,66069329.000000
141562200.000000,66165000.000000
Z" /> 
</g>
<g >
</g>
<g style="fill:#000000; fill-opacity:1.0; 
stroke:#000000; stroke-width:1.000000; stroke-opacity:1; 
stroke-linecap:round; stroke-linejoin:round;">
<path style="fill:#000000; fill-opacity:1.0; 
stroke:#000000; stroke-width:1.000000; stroke-opacity:1; 
stroke-linecap:round; stroke-linejoin:round;fill-rule:evenodd;"
d="M 147389700.000000,67475000.000000
147370670.000000,67379329.000000
147316477.000000,67298223.000000
147235371.000000,67244030.000000
147139700.000000,67225000.000000
146514700.000000,67225000.000000
146419029.000000,67244030.000000
146337923.000000,67298223.000000
146283730.000000,67379329.000000
146264700.000000,67475000.000000
146264700.000000,68725000.000000
146283730.000000,68820671.000000
146337923.000000,68901777.000000
146419029.000000,68955970.000000
146514700.000000,68975000.000000
147139700.000000,68975000.000000
147235371.000000,68955970.000000
147316477.000000,68901777.000000
147370670.000000,68820671.000000
147389700.000000,68725000.000000
Z" /> 
<path style="fill:#000000; fill-opacity:1.0; 
stroke:#000000; stroke-width:1.000000; stroke-opacity:1; 
stroke-linecap:round; stroke-linejoin:round;fill-rule:evenodd;"
d="M 144464700.000000,67475000.000000
144445670.000000,67379329.000000
144391477.000000,67298223.000000
144310371.000000,67244030.000000
144214700.000000,67225000.000000
143589700.000000,67225000.000000
143494029.000000,67244030.000000
143412923.000000,67298223.000000
143358730.000000,67379329.000000
143339700.000000,67475000.000000
143339700.000000,68725000.000000
143358730.000000,68820671.000000
143412923.000000,68901777.000000
143494029.000000,68955970.000000
143589700.000000,68975000.000000
144214700.000000,68975000.000000
144310371.000000,68955970.000000
144391477.000000,68901777.000000
144445670.000000,68820671.000000
144464700.000000,68725000.000000
Z" /> 
</g>
<g >
</g>
<g style="fill:#000000; fill-opacity:1.0; 
stroke:#000000; stroke-width:1.000000; stroke-opacity:1; 
stroke-linecap:round; stroke-linejoin:round;">
<path style="fill:#000000; fill-opacity:1.0; 
stroke:#000000; stroke-width:1.000000; stroke-opacity:1; 
stroke-linecap:round; stroke-linejoin:round;fill-rule:evenodd;"
d="M 149702200.000000,68277500.000000
149606529.000000,68296530.000000
149525423.000000,68350723.000000
149471230.000000,68431829.000000
149452200.000000,68527500.000000
149452200.000000,69052500.000000
149471230.000000,69148171.000000
149525423.000000,69229277.000000
149606529.000000,69283470.000000
149702200.000000,69302500.000000
150602200.000000,69302500.000000
150697871.000000,69283470.000000
150778977.000000,69229277.000000
150833170.000000,69148171.000000
150852200.000000,69052500.000000
150852200.000000,68527500.000000
150833170.000000,68431829.000000
150778977.000000,68350723.000000
150697871.000000,68296530.000000
150602200.000000,68277500.000000
Z" /> 
<path style="fill:#000000; fill-opacity:1.0; 
stroke:#000000; stroke-width:1.000000; stroke-opacity:1; 
stroke-linecap:round; stroke-linejoin:round;fill-rule:evenodd;"
d="M 149702200.000000,70102500.000000
149606529.000000,70121530.000000
149525423.000000,70175723.000000
149471230.000000,70256829.000000
149452200.000000,70352500.000000
149452200.000000,70877500.000000
149471230.000000,70973171.000000
149525423.000000,71054277.000000
149606529.000000,71108470.000000
149702200.000000,71127500.000000
150602200.000000,71127500.000000
150697871.000000,71108470.000000
150778977.000000,71054277.000000
150833170.000000,70973171.000000
150852200.000000,70877500.000000
150852200.000000,70352500.000000
150833170.000000,70256829.000000
150778977.000000,70175723.000000
150697871.000000,70121530.000000
150602200.000000,70102500.000000
Z" /> 
</g>
<g >
</g>
<g style="fill:#000000; fill-opacity:1.0; 
stroke:#000000; stroke-width:1.000000; stroke-opacity:1; 
stroke-linecap:round; stroke-linejoin:round;">
<path style="fill:#000000; fill-opacity:1.0; 
stroke:#000000; stroke-width:1.000000; stroke-opacity:1; 
stroke-linecap:round; stroke-linejoin:round;fill-rule:evenodd;"
d="M 140639700.000000,73250000.000000
140620670.000000,73154329.000000
140566477.000000,73073223.000000
140485371.000000,73019030.000000
140389700.000000,73000000.000000
139864700.000000,73000000.000000
139769029.000000,73019030.000000
139687923.000000,73073223.000000
139633730.000000,73154329.000000
139614700.000000,73250000.000000
139614700.000000,74150000.000000
139633730.000000,74245671.000000
139687923.000000,74326777.000000
139769029.000000,74380970.000000
139864700.000000,74400000.000000
140389700.000000,74400000.000000
140485371.000000,74380970.000000
140566477.000000,74326777.000000
140620670.000000,74245671.000000
140639700.000000,74150000.000000
Z" /> 
<path style="fill:#000000; fill-opacity:1.0; 
stroke:#000000; stroke-width:1.000000; stroke-opacity:1; 
stroke-linecap:round; stroke-linejoin:round;fill-rule:evenodd;"
d="M 138814700.000000,73250000.000000
138795670.000000,73154329.000000
138741477.000000,73073223.000000
138660371.000000,73019030.000000
138564700.000000,73000000.000000
138039700.000000,73000000.000000
137944029.000000,73019030.000000
137862923.000000,73073223.000000
137808730.000000,73154329.000000
137789700.000000,73250000.000000
137789700.000000,74150000.000000
137808730.000000,74245671.000000
137862923.000000,74326777.000000
137944029.000000,74380970.000000
138039700.000000,74400000.000000
138564700.000000,74400000.000000
138660371.000000,74380970.000000
138741477.000000,74326777.000000
138795670.000000,74245671.000000
138814700.000000,74150000.000000
Z" /> 
</g>
<g >
</g>
<g style="fill:#000000; fill-opacity:1.0; 
stroke:#000000; stroke-width:1.000000; stroke-opacity:1; 
stroke-linecap:round; stroke-linejoin:round;">
<path style="fill:#000000; fill-opacity:1.0; 
stroke:#000000; stroke-width:1.000000; stroke-opacity:1; 
stroke-linecap:round; stroke-linejoin:round;fill-rule:evenodd;"
d="M 142474700.000000,63990000.000000
142455670.000000,63894329.000000
142401477.000000,63813223.000000
142320371.000000,63759030.000000
142224700.000000,63740000.000000
141699700.000000,63740000.000000
141604029.000000,63759030.000000
141522923.000000,63813223.000000
141468730.000000,63894329.000000
141449700.000000,63990000.000000
141449700.000000,64890000.000000
141468730.000000,64985671.000000
141522923.000000,65066777.000000
141604029.000000,65120970.000000
141699700.000000,65140000.000000
142224700.000000,65140000.000000
142320371.000000,65120970.000000
142401477.000000,65066777.000000
142455670.000000,64985671.000000
142474700.000000,64890000.000000
Z" /> 
<path style="fill:#000000; fill-opacity:1.0; 
stroke:#000000; stroke-width:1.000000; stroke-opacity:1; 
stroke-linecap:round; stroke-linejoin:round;fill-rule:evenodd;"
d="M 140649700.000000,63990000.000000
140630670.000000,63894329.000000
140576477.000000,63813223.000000
140495371.000000,63759030.000000
140399700.000000,63740000.000000
139874700.000000,63740000.000000
139779029.000000,63759030.000000
139697923.000000,63813223.000000
139643730.000000,63894329.000000
139624700.000000,63990000.000000
139624700.000000,64890000.000000
139643730.000000,64985671.000000
139697923.000000,65066777.000000
139779029.000000,65120970.000000
139874700.000000,65140000.000000
140399700.000000,65140000.000000
140495371.000000,65120970.000000
140576477.000000,65066777.000000
140630670.000000,64985671.000000
140649700.000000,64890000.000000
Z" /> 
</g>
<g >
</g>
<g style="fill:#000000; fill-opacity:1.0; 
stroke:#000000; stroke-width:1.000000; stroke-opacity:1; 
stroke-linecap:round; stroke-linejoin:round;">
<path style="fill:#000000; fill-opacity:1.0; 
stroke:#000000; stroke-width:1.000000; stroke-opacity:1; 
stroke-linecap:round; stroke-linejoin:round;fill-rule:evenodd;"
d="M 142474700.000000,71220000.000000
142455670.000000,71124329.000000
142401477.000000,71043223.000000
142320371.000000,70989030.000000
142224700.000000,70970000.000000
141699700.000000,70970000.000000
141604029.000000,70989030.000000
141522923.000000,71043223.000000
141468730.000000,71124329.000000
141449700.000000,71220000.000000
141449700.000000,72120000.000000
141468730.000000,72215671.000000
141522923.000000,72296777.000000
141604029.000000,72350970.000000
141699700.000000,72370000.000000
142224700.000000,72370000.000000
142320371.000000,72350970.000000
142401477.000000,72296777.000000
142455670.000000,72215671.000000
142474700.000000,72120000.000000
Z" /> 
<path style="fill:#000000; fill-opacity:1.0; 
stroke:#000000; stroke-width:1.000000; stroke-opacity:1; 
stroke-linecap:round; stroke-linejoin:round;fill-rule:evenodd;"
d="M 140649700.000000,71220000.000000
140630670.000000,71124329.000000
140576477.000000,71043223.000000
140495371.000000,70989030.000000
140399700.000000,70970000.000000
139874700.000000,70970000.000000
139779029.000000,70989030.000000
139697923.000000,71043223.000000
139643730.000000,71124329.000000
139624700.000000,71220000.000000
139624700.000000,72120000.000000
139643730.000000,72215671.000000
139697923.000000,72296777.000000
139779029.000000,72350970.000000
139874700.000000,72370000.000000
140399700.000000,72370000.000000
140495371.000000,72350970.000000
140576477.000000,72296777.000000
140630670.000000,72215671.000000
140649700.000000,72120000.000000
Z" /> 
</g>
<g >
</g>
<g style="fill:#000000; fill-opacity:1.0; 
stroke:#000000; stroke-width:1.000000; stroke-opacity:1; 
stroke-linecap:round; stroke-linejoin:round;">
<path style="fill:#000000; fill-opacity:1.0; 
stroke:#000000; stroke-width:1.000000; stroke-opacity:1; 
stroke-linecap:round; stroke-linejoin:round;fill-rule:evenodd;"
d="M 138132201.000000,78049999.000000
139832199.000000,78049999.000000
139832199.000000,76350001.000000
138132201.000000,76350001.000000
Z" /> 
<circle cx="141522200.000000" cy="77200000.000000" r="850000.000000" /> 
<circle cx="144062200.000000" cy="77200000.000000" r="850000.000000" /> 
<circle cx="146602200.000000" cy="77200000.000000" r="850000.000000" /> 
<circle cx="149142200.000000" cy="77200000.000000" r="850000.000000" /> 
<circle cx="151682200.000000" cy="77200000.000000" r="850000.000000" /> 
</g>
<g >
</g>
<g style="fill:#000000; fill-opacity:1.0; 
stroke:#000000; stroke-width:1.000000; stroke-opacity:1; 
stroke-linecap:round; stroke-linejoin:round;">
<path style="fill:#000000; fill-opacity:1.0; 
stroke:#000000; stroke-width:1.000000; stroke-opacity:1; 
stroke-linecap:round; stroke-linejoin:round;fill-rule:evenodd;"
d="M 136852201.000000,64600001.000000
136852201.000000,66599999.000000
138852199.000000,66599999.000000
138852199.000000,64600001.000000
Z" /> 
<circle cx="137852200.000000" cy="70600000.000000" r="1000000.000000" /> 
</g>
<g style="fill:#000000; fill-opacity:1.0; 
stroke:#000000; stroke-width:21200.000000; stroke-opacity:1; 
stroke-linecap:round; stroke-linejoin:round;">
</g>
<g style="fill:#000000; fill-opacity:1.0; 
stroke:#000000; stroke-width:1.000000; stroke-opacity:1; 
stroke-linecap:round; stroke-linejoin:round;">
<circle cx="137852200.000000" cy="68100000.000000" r="1000000.000000" /> 
</g>
<g style="fill:#000000; fill-opacity:1.0; 
stroke:#000000; stroke-width:21200.000000; stroke-opacity:1; 
stroke-linecap:round; stroke-linejoin:round;">
</g>
<g style="fill:#000000; fill-opacity:1.0; 
stroke:#000000; stroke-width:1.000000; stroke-opacity:1; 
stroke-linecap:round; stroke-linejoin:round;">
<path style="fill:#000000; fill-opacity:1.0; 
stroke:#000000; stroke-width:1.000000; stroke-opacity:1; 
stroke-linecap:round; stroke-linejoin:round;fill-rule:evenodd;"
d="M 143752201.000000,61500001.000000
143752201.000000,63499999.000000
146952199.000000,63499999.000000
146952199.000000,61500001.000000
Z" /> 
<path style="fill:#000000; fill-opacity:1.0; 
stroke:#000000; stroke-width:1.000000; stroke-opacity:1; 
stroke-linecap:round; stroke-linejoin:round;fill-rule:evenodd;"
d="M 143752201.000000,72700001.000000
143752201.000000,74699999.000000
146952199.000000,74699999.000000
146952199.000000,72700001.000000
Z" /> 
<circle cx="152352200.000000" cy="70600000.000000" r="1000000.000000" /> 
</g>
<g style="fill:#000000; fill-opacity:1.0; 
stroke:#000000; stroke-width:21200.000000; stroke-opacity:1; 
stroke-linecap:round; stroke-linejoin:round;">
</g>
<g style="fill:#000000; fill-opacity:1.0; 
stroke:#000000; stroke-width:1.000000; stroke-opacity:1; 
stroke-linecap:round; stroke-linejoin:round;">
<circle cx="152352200.000000" cy="65600000.000000" r="1000000.000000" /> 
</g>
<g style="fill:#000000; fill-opacity:1.0; 
stroke:#000000; stroke-width:21200.000000; stroke-opacity:1; 
stroke-linecap:round; stroke-linejoin:round;">
</g>
<g >
</g>
<g >
</g>
<g >
</g>
</g> 
</svg>
